<?xml version="1.0" encoding="utf-8"?>
<!-- Generator: Adobe Illustrator 23.0.2, SVG Export Plug-In . SVG Version: 6.00 Build 0)  -->
<svg version="1.1" id="Capa_1" xmlns="http://www.w3.org/2000/svg" xmlns:xlink="http://www.w3.org/1999/xlink" x="0px" y="0px"
	 viewBox="0 0 1038 292.7" style="enable-background:new 0 0 1038 292.7;" xml:space="preserve">
<style type="text/css">
	.st0{fill:#FEFEFE;}
	.st1{fill:#428297;}
	.st2{fill:#F8FAFB;}
	.st3{fill:#FBFCFC;}
	.st4{fill:#F7FAFA;}
	.st5{fill:#FBFCFD;}
	.st6{fill:#F1F5F7;}
	.st7{fill:#FDFEFE;}
	.st8{fill:#FDFDFD;}
	.st9{fill:#F5F8F9;}
	.st10{fill:#F6F8F9;}
	.st11{fill:#FDFDFE;}
</style>
<g>
	<g>
		<path class="st0" d="M477.3,263.1c1.2-0.8,1.8-1,2.9,0.3c2.1,2.5,4.4,4.7,6.6,7c0.2,0.2,0.3,0.3,0.5,0.5c1.9,0,4,1.2,5.5-1
			c0.8-2.3,2.6-3,4.7-2.8c2.2,0.2,3.4,1.6,3.5,3.9c2.7,0.3,5.5,0.3,8.2,0c-0.1-0.4-0.2-0.9-0.5-1.1c-2-2.2-4.1-4.3-6.1-6.5
			c-7.2-8.4-12.8-17.8-18.8-27c-1.9-2.8-4.8-5.4-5.4-8.5c-0.6-3.1,1-6.6,1.6-9.9c0.1-0.4,0.1-0.9,0.2-1.3
			c2.6-13.3,4.4-26.7,9.9-39.2c0.8-1.8-0.2-2.6-1.8-3.3c-5.6-2.2-10.8-4.9-15.8-8.2c-9-5.9-17.8-11.9-26.7-17.8
			c-1.1-0.8-1.2-1.8-1.4-2.8c-0.7-3.4-1.3-6.9-2-10.3c-2.6-12.7-5.8-25.4-5.5-38.5c0-1.9-1-2.4-2.7-2.4c-5.5,0.1-10.9-0.5-16.3-1.3
			c-11.1-1.6-21.9-4.7-33-6.4c-1.2-0.2-1.7-1-2.3-1.8c-1.8-2.7-3.5-5.4-5.3-8.1c-7.5-11.1-15.5-21.8-20.4-34.3
			c-0.8-1.9-2-1.9-3.7-1.2c-4,1.7-8.1,3.1-12.3,4.2c-11.9,3.3-24.2,4.6-36.2,7.6c-1.1,0.3-1.8-0.3-2.5-0.9c-4.7-3.1-9.3-6.3-14-9.4
			c-9.2-6.1-18.5-12.1-26.2-20.2c-1.2-1.3-2.3-0.9-3.5,0.3c-3.2,3.3-6.7,6.3-10.3,9.1c-9.6,7.4-20.3,13.4-30.1,20.6
			c-0.8,0.6-1.5,0.5-2.4,0.3c-4-0.8-8-1.7-12-2.4c-12.3-2.4-24.8-4.3-36.4-9.4c-1.8-0.8-2.8,0-3.5,1.8c-1.7,4.5-4,8.8-6.4,13
			c-6,10.2-13.3,19.6-19.5,29.6c-0.6,1-1.6,1.2-2.6,1.4c-4,0.8-8,1.4-12,2.3c-12.2,2.6-24.4,5.4-37,5.3c-2.1,0-2.3,1.2-2.3,2.8
			c0.1,5.5-0.5,10.9-1.3,16.3c-1.6,11.1-4.7,21.9-6.3,33c-0.2,1.1-0.8,1.6-1.6,2.1c-4.5,3-8.9,5.9-13.3,8.9
			c-9.3,6.4-18.6,12.9-29.2,17c-1.8,0.7-2,1.9-1.3,3.4c1.7,3.9,3,7.9,4.2,12c3.4,12.1,4.8,24.5,7.6,36.7c0.2,0.8,0.1,1.4-0.4,2.2
			c-6.8,9.4-12.5,19.5-19.4,28.8c-3.1,4.2-6.4,8.2-10.2,11.8c-0.5,0.5-1.3,1.1-0.9,1.9c0.4,0.7,1.2,0.3,1.9,0.3c2,0,3.9,0,5.9,0
			c0-0.5,0-1.1,0.5-1.5c0.5-1.9,1.9-2.8,3.6-2.8c2-0.1,3.5,0.8,4.2,2.8c0.5,0.4,0.5,1,0.5,1.5c1.6,0,3.3,0,4.9,0
			c0.1-0.4,0.2-0.7,0.6-0.9c2.2-2.3,4.5-4.6,6.6-7c1-1.1,1.6-1.3,2.9-0.4c3.6,2.5,7.3,4.9,10.9,7.3c0.6,0,0.8,0.6,1.1,0.9
			c1.8,0,3.7,0,5.5,0c0.2-0.1,0.4-0.3,0.6-0.4c4.7-5,8.8-10.6,12.9-16.1c3.5-4.7,12-5.3,16.3-1.4c3,2.7,3.2,6.2,2.2,9.9
			c-0.8,2.8-2.6,5-4.3,7.1c0,0.3,0.1,0.6,0.1,0.9c2.3,0,4.7,0,7,0l0,0l0,0c0.2-0.1,0.4-0.3,0.6-0.4c-0.1-6.7,5.3-12.3,12.2-12.5
			c6.8-0.2,12.3,5.2,12.9,12.5c0.1,0.1,0.2,0.3,0.1,0.4c6.4,0,12.8,0,19.3,0c0.2-0.1,0.4-0.3,0.6-0.4l0,0c-0.1-1.5,0.8-2.2,2.1-2.4
			c1.5-0.3,2.6,0.4,3.1,1.9c0.8,0.4,1.5,0.6,2.1,0.8c0.4,0,0.8,0,1.3,0c0.1,0,0.1,0,0.1,0c1.3-0.2,2.1-1.1,2.5-2.9
			c1.1-13.2,10.8-25.2,23.4-28.9c1.3-0.4,2-0.2,2.6,1.1c0.9,2,1.9,3.9,3,6.1c-12.6,3.4-20,11.1-20.8,24.4c1.3,0.3,2.5,0.3,3.8,0
			c0-9.6,7.4-18.6,16.8-20.4c1.4-0.3,2.2,0,2.8,1.4c1,2.2,2.3,4.3,3.5,6.5c-9,0.5-13.4,3.8-14.6,10.9c0.2,0.7,0,1.7,1.3,1.8
			c1.1,0,2-0.1,2.4-1.2c1.1-5.1,4.7-8,9.5-7.6c4.4,0.3,7.7,3.9,7.9,8.7c0.2,0.1,0.4,0.3,0.6,0.4c9.3,0,18.6,0,28,0
			c0.4-0.3,0.7-0.6,1.1-1c6.3-6.7,13.6-7.2,21.6-3.5c2.7,1.2,5.4,2.4,8.1,3.6c0.8-0.1,1.1,0.5,1.6,0.9l0,0l0,0c3.7,0,7.4,0,11.1,0
			c0.6-0.3,1.1-0.6,1.7-0.9c3.9-1.5,7.5-3.5,11.5-4.8c7.5-2.6,13.6-0.5,18.6,5.3c0,0,0.1-0.1,0.1-0.1c0.6,0.1,1.1,0.3,1.7,0.3
			c9.1,0,18.2-0.1,27.3-0.2c-0.2-3.8,3.5-8.3,7.7-8.7c4.6-0.4,8.3,2.2,9.7,7.1c0.4,1.1,0.9,2,2.4,1.8c1.9-0.4,0.8-1.9,1.1-2.8
			c-1.8-6.7-6.1-9.7-14.5-9.8c1.3-2.5,2.6-4.9,3.9-7.4c0.5-1.1,1.4-0.7,2.2-0.6c9.4,1.5,17.1,10.7,16.9,20.4l0.1-0.2
			c1.2,0.5,2.4,0.4,3.7,0.1c-0.6-12.6-7.1-20.3-20.7-24.3c1.1-2.2,2.2-4.4,3.2-6.6c0.6-1.2,1.5-0.9,2.4-0.6
			c12.1,3.5,21.9,15.2,23.2,27.7c0.1,1.3,0.2,2.5,0.3,3.8c1.9,0.3,3.7,0.3,5.5,0c0.1-0.1,0.2-0.1,0.3-0.2c0-1.5,1.1-2.1,2.3-2.3
			c1.4-0.2,2.5,0.4,2.8,1.9c0.5,0.5,1.1,0.8,1.8,0.8c6-0.1,12-0.1,18.1-0.2c0.5-7.5,6.2-12,11.5-12.5c6.4-0.6,12.1,3.8,13.6,10.4
			c0.6,0.8,0.4,1.6,0.5,2.5c2.3,0,4.7,0,7,0c0.1-0.2,0.1-0.3,0.2-0.5c-1.2-2.3-3-4.3-4-6.8c-2.7-6.7,1-12.7,8.2-13.1
			c4.6-0.2,8.4,1.3,11.1,5.3c3.4,5.1,7.1,9.9,11.5,14.2c0.4,0.1,0.6,0.5,0.6,0.9c1.8,0,3.6,0,5.5,0c0.4-0.3,0.8-0.6,1.1-0.9
			C470,268,473.7,265.6,477.3,263.1z M489.6,256.5c2.3,0,4.1,1.6,4.2,3.9c0.1,2.3-1.8,4.3-4.1,4.3c-2.2,0-4.4-2-4.4-4.1
			C485.3,258.4,487.3,256.5,489.6,256.5z M486.1,250.7c-0.1,2.4-1.9,4.1-4.3,4c-2.5,0-4.4-1.9-4.4-4.3c0.1-2.2,2.1-4.1,4.4-4.1
			C484.3,246.4,486.2,248.3,486.1,250.7z M479.2,239.7c0,2.8-2,4.8-4.8,4.8c-2.8,0-5.1-2.2-5.1-4.9c0-2.8,2.3-4.8,5.2-4.8
			C477.3,234.9,479.2,236.9,479.2,239.7z M450,223.9c7.2,8.1,13.2,17.1,19.5,25.8c0.8,1.1,0.6,1.6-0.4,2.1c-0.1,0-0.1,0.1-0.2,0.1
			c-4.4,3.3-4.4,3.3-7.6-1.1c-6.2-8.4-12-17.1-19.7-24.3c-6.4-5.9-13.4-10.4-22.4-11.1c-1.6-0.1-3.2,0-5.3,0
			c3.8-4.8,8.4-6.1,13.6-5.2C436.7,212,443.9,217,450,223.9z M444.4,211.7c0-1.7,1-2.6,2.8-2.6c1.6,0,2.5,1,2.5,2.6
			c0,1.6-1,2.5-2.7,2.5C445.5,214,444.4,213.3,444.4,211.7z M473.2,214.2c1.8,1.6,2.1,4,1,6c-0.6,1-1,1.4-2,0.3
			c-1.9-1.9-4-3.7-6.3-5.7C469.1,212.5,471.3,212.4,473.2,214.2z M468.4,205.2c-0.1-2.3,2.1-4.7,4.4-4.8c2.1-0.1,4.1,1.9,4.2,4.3
			c0.1,2.4-1.9,4.4-4.3,4.4C470.6,209.1,468.5,207.3,468.4,205.2z M466.1,222.9c2.7,0,4.8,2.1,4.9,4.8c0,2.8-1.9,4.8-4.7,4.9
			c-2.9,0.1-5.2-2-5.3-4.7C460.9,225.2,463.3,222.9,466.1,222.9z M456.8,222.1c-2.6,0-4.7-1.9-4.6-4.4c0.1-2.4,2-4.1,4.6-4.1
			c2.6,0,4.3,1.8,4.2,4.4C461,220.4,459.3,222.1,456.8,222.1z M478.8,175.9c2.1,0,4.1,2,4.1,4c0,2.3-2,4.4-4.3,4.5c-2,0-4-2-4-4.1
			C474.5,178.2,476.7,176,478.8,175.9z M476.5,188.5c2.1,0.1,3.9,2.2,3.8,4.4c-0.1,2.3-2.2,4.1-4.5,4c-2.1-0.1-3.9-2.1-3.9-4
			C472.1,190.5,474.2,188.5,476.5,188.5z M468.4,169.2c2.1,0,4,2,3.9,4.2c0,2.3-2,4.2-4.3,4.1c-2.2-0.1-4.1-2-4-4.1
			C464.2,171.1,466.2,169.1,468.4,169.2z M457.5,162.8c2.1,0,3.9,1.9,4,4.1c0.1,2.4-1.8,4.4-4.2,4.5c-2.3,0.1-4.3-1.9-4.3-4.1
			C452.9,165,455,162.8,457.5,162.8z M446.1,155.2c0.8-0.5,1.8,0.1,2.6,0.6c1.8,1.1,2.5,2.8,2.3,4.8c-0.3,2-1.5,3.4-3.4,4
			c-1.1,0.4-1.8,0.3-1.7-1.2c0.1-1.3,0-2.5,0-3.8c0,0,0,0,0,0c0-0.8,0-1.5,0-2.3C445.9,156.6,445.4,155.6,446.1,155.2z M444.7,173.3
			c0.5-2.1,0.9-2.2,2.6-1.1c6.8,4.2,13.7,8.1,21.2,11c0.9,0.3,1.8,0.6,1.1,1.9c-3.7,8.1-5.9,16.6-8.1,25.5
			c-5.7-3.8-11.4-6.6-18.2-6.2c-1.8,0.1-3.7,0.1-5.2,0.9c-3,1.6-5.8,1.5-8.9,0.2c-2.4-1-5.1-1.1-8.3-1.1c3.2-3.4,5.4-6.8,6.9-10.7
			c0.2-0.5,0.7-0.7,1.2-0.9C438.5,189.6,442.7,182.3,444.7,173.3z M434.2,178c1.5-0.1,2.5,1,2.7,2.6c-0.2,1.6-1.1,2.7-2.8,2.7
			c-1.5,0-2.5-0.9-2.5-2.4C431.5,179.2,432.6,178,434.2,178z M432.2,169.2c0.1-2.3,2.1-4.2,4.5-4.2c2.4,0,4.4,1.9,4.5,4.3
			c0,2.4-2.1,4.5-4.5,4.5C434.2,173.7,432.1,171.6,432.2,169.2z M441.3,155.7c0,2.7-2.3,5.1-5,5c-2.8,0-5-2.3-4.9-5.1
			c0-2.8,2.3-4.9,5.1-4.9C439.1,150.9,441.2,153,441.3,155.7z M438.7,141.5c0,2.7-2.5,5-5.1,4.9c-2.8-0.1-4.9-2.4-4.8-5.2
			c0.1-2.7,2.3-4.8,5-4.7C436.5,136.5,438.7,138.8,438.7,141.5z M435.6,128.5c0,2.3-1.9,4.1-4.3,4.2c-2.4,0-4.4-1.9-4.4-4.3
			c0-2.3,2.1-4.4,4.4-4.3C433.8,124,435.7,126.1,435.6,128.5z M434.1,115.7c0,2.1-2.2,4.2-4.3,4.3c-2.1,0.1-4.1-2.1-4.1-4.3
			s2.1-4.2,4.3-4.1C432.1,111.7,434.1,113.7,434.1,115.7z M427.7,99.1c2.2,0.1,4.1,1.9,4.1,4c0,2.3-2.1,4.3-4.5,4.3
			c-2.1-0.1-4-2-3.9-4.2C423.4,100.9,425.3,99,427.7,99.1z M423.3,137.6c2,12.3,4.5,24.6,4.4,37.2c0,6.9-2,13.2-5.5,19.1
			c-3.4,5.7-8.1,8.1-14.3,7.4c10.1-8.4,12-19.6,11.9-31.5c-0.1-9.3-2-18.4-3.2-27.6c-0.2-1.6-1.3-3.7-0.1-4.5c1.4-1,3.7-0.9,5.6-1.3
			C423,136.3,423.2,136.9,423.3,137.6z M335.8,181.3c-7.9-1.5-15.5-4.3-23.3-6.6c-0.6-0.2-1.3-0.4-1.3-1.3c0-0.7,0.4-1,1.1-1.2
			c8.2-2.4,16.3-5.5,24.7-7.1c0.9-0.2,1.9-0.1,2.8-0.2c4.2-0.1,7.7,1.4,10.2,4.7c1.9,2.4,1.9,4.8,0,7.3
			C346.4,181.8,341.2,182.4,335.8,181.3z M345.6,188.2c-0.4,1.6-1.2,2.7-2.9,2.7c-1.6,0-2.6-1-2.5-2.5c0-1.6,1.1-2.7,2.7-2.7
			C344.5,185.6,345.3,186.7,345.6,188.2z M322,208.3c-5.4-4.9-12.6-4.2-18.9,2c-0.8-2.7-1.6-5.3-2.4-7.9c-0.4-1.4,0.8-1.7,1.6-2.2
			c7.7-5.1,17.7-4.4,24.9,1.6c6.9,5.8,9.1,15.6,5.5,24.1c-2.2,5.1-2.2,5.1-7.3,3.6c-1.4-0.4-2.9-0.8-4.4-1.2
			C327.3,220.8,327.7,213.5,322,208.3z M313.7,226.4c-5,0-8.9-3.9-8.9-8.8c0-4.8,3.9-8.7,8.7-8.8c4.9-0.1,8.9,3.9,8.9,8.9
			C322.4,222.5,318.5,226.4,313.7,226.4z M310.9,231.3c3.5-0.4,6.9,0.3,11,1c-4.5,1.4-7.7,3.2-9.9,6.5c-3,4.4-3,4.4-8.5,4.5
			c-3.9,0.1-7.4,1.6-10.7,3.6c-0.7,0.4-1.4,0.9-2.2,1.4c-0.6-3.4,0.7-5.6,3-7.7C298.6,236.1,303.8,232,310.9,231.3z M290.6,237.8
			c-2.2,2.2-4.3,3.6-7.6,2.8c2.8-4,5-8.2,5-13.1c0-5,0.1-5.3,4.3-8c3.5-2.3,5.5-5.6,6.6-9.9C302.4,221.1,298.3,229.9,290.6,237.8z
			 M198.9,208.2c-5.7,5.2-5.4,12.6,0.9,20c-2.5,0.8-5,1.5-7.5,2.3c-1,0.3-1.5,0-2.1-0.8c-4.6-5.9-5-15.9-0.8-22.9
			c4.1-6.9,12.7-11.1,20.4-9.8c3.2,0.5,6.2,1.6,9,3.3c1.2,0.7,1.6,1.4,1.1,2.9c-0.8,2.3-1.4,4.7-2.2,7.2
			C211.8,204.1,204.3,203.3,198.9,208.2z M216,217.7c-0.1,5-3.9,8.8-8.9,8.7c-4.8,0-8.6-4-8.6-8.9c0.1-4.9,4.1-8.9,9-8.8
			C212.3,208.9,216,212.8,216,217.7z M229.5,243c0.9,0.9,0.8,1,0.8,5.3c-2.7-1.5-5.2-3.2-8.1-4.1c-3.2-1-6.3-1.3-9.5-0.1
			c-0.8,0.3-1.4,0.5-1.7-0.6c-1.5-5.9-5.5-9.3-11.6-11.1C212.3,228.4,221.4,234.3,229.5,243z M220.9,220.4
			c-0.3-3.4,0.1-6.7,1.1-10.1c2,5.5,5.3,9.5,11.1,11.1c0.7,0.2,1,0.5,0.7,1.3c-2.5,6.8,0.5,12.4,3.9,17.9c-3.8,0.5-4.2,0.4-6.7-2.1
			C226,233.3,221.6,227.9,220.9,220.4z M171.4,177.8c-2.7-3-2.7-5.8,0-8.8c2.6-2.9,6-4.1,9.4-3.9c3.5,0,6.4,0.7,9.2,1.6
			c6.1,1.8,12.2,3.7,18.3,5.6c0.6,0.2,1.4,0.2,1.3,1.2c-0.1,0.8-0.5,1.2-1.3,1.4c-8.5,2.4-16.7,5.7-25.6,6.8
			C178.4,182.1,174.5,181.2,171.4,177.8z M180.6,188.5c-0.1,1.6-1.1,2.5-2.7,2.4c-1.6-0.1-2.5-1.1-2.5-2.7c0-1.6,1.1-2.4,2.6-2.6
			C179.5,185.9,180.7,186.7,180.6,188.5z M114.1,184.4c1,2.4,2.6,4.4,4.4,6.2c1.1,1.1,2.3,2.3,3.3,3.5c0.9,1.1,2.2,2.4,1.1,4.1
			c-0.9,1.3-4,2-5.6,1.3c-3.6-1.8-6.3-4.6-8.2-8.1c-4.1-7.4-4.6-15.6-4.3-23.8c0.4-9.3,2.3-18.4,3.5-27.6c0.2-1.4,0.4-2.3,2.2-1.6
			c1.1,0.4,2.3,0.5,3.5,0.6c0.9,0.1,1.4,0.4,1.3,1.4c-0.9,5.8-2,11.6-2.8,17.4C111.2,166.8,110.4,175.7,114.1,184.4z M120.7,205
			c0.6-0.1,1.2-0.1,1.6-0.1c4,0,7.3,1.5,10.4,3.6c7.4,5,14.1,11,21,16.7c0.6,0.5,1,0.8,0.6,1.7c-0.3,0.7-0.6,1.1-1.5,0.9
			c-9.3-1-18.7-1.4-27.8-3.4c-4.1-0.9-7.7-2.7-10.2-6.3C110.5,211.9,113.3,205.9,120.7,205z M123.2,182.5c-4.2,0-7.8-3.6-7.8-7.9
			c0-4.4,3.6-8,7.9-8c4.3,0,7.7,3.6,7.8,7.9C131.2,178.9,127.6,182.5,123.2,182.5z M123.8,161.7c-3.9-2.4-6.1-5.8-6.5-10.5
			c0.3-1.9,0.7-3.9,1-5.9c0.8-4.6,1.2-9.3,1.2-13.9c0-1.3,0.3-1.8,1.6-1.8c6.3,0,12.5-1,18.7-2c6-1,13.1,5,13.1,11.1
			c0,3.1-1.6,5.5-4.1,7.2c-2.4,1.6-5,2.5-7.9,2.6c-2,0.1-2.6,1-2.7,2.9c-0.1,2.9-1.1,5.7-2.8,8.1C132.5,163.4,128,164.3,123.8,161.7
			z M158.2,121.5c-8.8,0.1-17.4,2.2-26,3.5c-2.4,0.4-3.5,0.1-3.8-2.6c-0.4-3.9-0.5-3.8,3.5-4.4c9.3-1.4,18.6-3.2,28.1-3.3
			c6.5-0.1,12.9,0.6,18.9,3.3c4,1.8,7.2,4.4,9.6,8.1c1.3,2,1.1,3.8,0.1,5.7c-0.7,1.5-1.9,2-3.3,1c-1.3-0.8-2.6-1.7-3.6-2.8
			C175.6,122.6,167.1,121.4,158.2,121.5z M172.2,133.2c0.1,4.3-3.4,8-7.8,8.1c-4.2,0.1-7.8-3.4-7.9-7.7c-0.1-4.5,3.3-8,7.7-8.1
			C168.4,125.4,172.1,128.9,172.2,133.2z M153.4,150.8c6.8,0.1,12.4,5.6,12.4,12.4c0,7.2-5.6,12.8-12.8,12.8
			c-7,0-12.3-5.5-12.3-12.6C140.7,156.1,146.2,150.7,153.4,150.8z M159.1,181.3c2.7-2.3,5.3-2.2,8,0.1c3.2,2.6,4.4,6.1,4.3,10.2
			c0,2.7-0.6,5.2-1.3,7.8c-1.8,6.4-3.8,12.9-5.7,19.3c-0.2,0.7-0.3,1.5-1.4,1.4c-0.9,0-0.9-0.6-1.1-1.1c-2.5-8.8-6.1-17.3-7.2-26.4
			C154.3,188.1,155.6,184.2,159.1,181.3z M209.3,168.5c-7.9-2.4-15.9-4.5-23.6-7.5c-4.6-1.8-8.8-4.2-10.9-9c-0.7-1.5-1-3.1-1.1-4.9
			c0-4.5,4.4-7.7,10.1-6.9c4.9,0.6,8.4,3.5,11.6,6.9c5.6,6,10.6,12.5,15.7,18.8c0.5,0.6,1.3,1.2,0.5,2.2
			C210.9,169,210.2,168.7,209.3,168.5z M198.3,143.1c-3.3-4.9-5.3-10.1-2.4-16c1.4-2.9,3.4-4.3,6.6-4.3c4,0.6,7.3,2.9,9.5,6.9
			c2.2,4.1,2.8,8.5,3.3,13c0.8,6.6,1.4,13.2,2,19.8c0.1,0.9,0.2,1.6-0.9,2.1c-1,0.4-1.4-0.2-1.9-0.8
			C209,156.9,203.2,150.4,198.3,143.1z M261.6,72.2c4.1,4.2,8.8,7.8,13.7,11.1c3.6,2.4,5,5.9,5.2,10.2c0.1,7.8-6.2,12.1-13.6,8.9
			c-1.7-0.7-3.3-1.7-4.7-3c-1.2-1.1-2.3-1.1-3.5,0c-2.4,2.2-5.3,3.7-8.6,4c-3.5,0.3-6.3-1-8.2-4.1c-3-5.1-1.5-12.3,3.3-15.7
			c5-3.6,9.9-7.2,14.2-11.6C260.4,71.1,260.9,71.5,261.6,72.2z M252,52.5c-0.5-0.7-0.2-1,0.3-1.5c2.4-2.3,4.8-4.5,7.2-6.9
			c0.8-0.8,1.3-0.7,2,0.1c2.2,2.2,4.5,4.4,6.8,6.5c0.7,0.7,1,1.1,0.4,2.1c-2.7,4-5.4,8-8.2,12.3C257.5,60.8,254.8,56.7,252,52.5z
			 M300.3,84.8c-6.8-6.3-14.5-11.5-22-17c-1.7-1.2-1.9-2-0.6-3.7c2.9-3.7,2.8-3.8,6.6-1.1c9.2,6.6,18.5,13,26.5,21.1
			c5.4,5.4,8.6,11.9,10.1,19.3c1.1,5.5-1,10.7-5.3,13.4C316.9,103,309.5,93.4,300.3,84.8z M278,72.2c7,5.2,14.3,10.2,20.6,16.3
			c5.9,5.7,11,11.8,13,20.1c0.8,3.3,0.7,6.6-0.2,9.8c-0.2,0.7-0.3,1.5-1,2c-1.3,0.9-2.5,2.4-4.3,1.6c-1.7-0.7-1.9-2.5-1.9-4.2
			c0-1,0-2,0-3.1c0.5-7.7-3.2-13.7-8-19.2c-4.5-5.2-10.1-9.1-15.7-13c-3-2.1-5.9-4.3-8.9-6.4c-1.1-0.8-1.4-1.3-0.5-2.6
			C274,69.2,273.9,69.2,278,72.2z M269,186.4c-2.5-2.4-5.5-3.5-9-3.4c-7.2,0.2-11.9,5.9-12,14.9c-2.4-1.3-4.8-2.6-7.2-3.8
			c-1.3-0.7-0.9-1.7-0.7-2.6c1.9-9,9.9-16.2,18.6-16.7c10-0.6,18.5,5.2,21.6,14.5c1.3,4,1.3,3.9-2.4,5.9c-1.6,0.8-3.1,1.7-4.9,2.7
			C273.3,193.3,272.2,189.5,269,186.4z M225.1,121.8c4.1-3,7.9-2.3,10.7,1.9c2.8,4.1,2.6,8.5,1.3,13c-1.1,3.9-3.1,7.4-4.9,10.9
			c-2.5,4.9-5.2,9.7-7.8,14.6c-0.4,0.8-0.7,1.7-2,1.5c-1.3-0.2-0.9-1.2-1.1-1.9c-0.1-0.5-0.1-1-0.2-1.5c-0.7-8-1.4-15.9-2-22.2
			C219.1,130.6,220.1,125.4,225.1,121.8z M223.8,105.2c0.1-4.6,3.2-7.6,7.8-7.6c4.4,0.1,7.4,3.2,7.4,7.7c0,4.5-3.3,8.1-7.5,8.1
			C227.3,113.5,223.8,109.8,223.8,105.2z M227.6,164.3c3.9-7.3,7.4-14.9,12.1-21.8c2.4-3.6,5.5-6.2,10-6.8c4.9-0.7,8.1,2,8.1,8.1
			c-0.1,3.1-2.2,6.4-5.5,9c-5.6,4.3-12,7.3-18.2,10.7c-1.6,0.9-3.2,1.6-4.7,2.5c-0.7,0.4-1.2,0.4-1.8-0.2
			C226.9,165.2,227.3,164.8,227.6,164.3z M260.4,156.7c-1.7,0-2.7-1.2-2.6-2.9c0.1-1.6,1.1-2.6,2.7-2.4c1.6,0.1,2.4,1.1,2.4,2.7
			C262.9,155.7,262,156.7,260.4,156.7z M291.7,185.3c0.6,1.8,0.6,3-1.4,3.8c-1.7,0.7-3.5,2.4-5,2.2c-1.9-0.3-1.3-3-2-4.6
			c-4-9.8-13.6-16.2-23.5-15.7c-11.2,0.6-20,7.6-23,18.4c-0.2,0.7-0.4,1.5-0.7,2.4c-1.5-0.7-2.7-1.2-3.9-1.9c-4.3-2.4-4.4-1-2.4-6.1
			c5.3-13.4,17.9-21.6,32.3-21.2C275.1,163,287.2,172.4,291.7,185.3z M260.6,131.4c-6.8,0.1-12.6-5.6-12.7-12.4
			c-0.1-6.9,5.6-12.8,12.5-12.9c6.8-0.1,12.7,5.8,12.7,12.7C273.1,125.5,267.3,131.3,260.6,131.4z M227.7,194.3
			c0.2-0.6,0.4-1.4,1.4-0.9c5.9,2.9,11.9,5.9,13.6,13.1c0.8,3.4,0.6,6.8-2.3,9.4c-3.2,2.8-7.8,2.6-11.1-0.5c-2.9-2.8-4-6.2-4.1-10.1
			C225.4,201.4,226.5,197.9,227.7,194.3z M282.3,199.3c2.6-2.5,5.8-4.2,9-5.7c1-0.5,1.4-0.4,1.8,0.7c1.3,3.5,2.3,7.1,2.4,10.6
			c-0.1,4.4-1.3,8-4.5,10.7c-2.5,2.2-5.4,2.8-8.5,1.5c-3.2-1.3-4.6-3.9-4.8-7.2C277.5,205.7,279.3,202.2,282.3,199.3z M291.4,166
			c-7.1-3.9-14.5-7.4-21.2-12c-4-2.7-7-6.2-7-10.1c0-6.2,3.1-8.9,7.9-8.3c4.7,0.6,7.8,3.4,10.4,7.1c3.3,4.8,5.8,10.1,8.6,15.3
			c1.1,2,2.1,4.1,3.2,6.1c0.3,0.6,0.8,1.1,0.1,1.8C292.6,166.5,292,166.3,291.4,166z M283.9,137c-1.7-4.7-1.6-9.3,1.4-13.6
			c2.6-3.7,6.1-4.4,10-1.9c4.5,2.9,6.1,7.3,6.5,12.3c0.1,1.1,0,2.2,0,3.3c-0.3,8.4-1.4,16.7-2.1,25.1c-0.1,0.8-0.2,1.3-1.1,1.4
			c-0.8,0.1-1.3-0.1-1.7-0.8C292.4,154.3,287.2,146.1,283.9,137z M281.8,105.4c0-4.6,3.1-7.8,7.6-7.8c4.4,0,7.5,3.1,7.6,7.5
			c0.1,4.4-3.5,8.3-7.7,8.3C285.3,113.4,281.8,109.8,281.8,105.4z M246.9,77.7c-6.5,4.9-13.5,9.2-19.4,14.8
			c-5.4,5.1-9.7,10.9-10.9,18.6c-0.3,2.2,0.1,4.4,0,6.6c-0.1,1.8-0.2,3.7-2.3,4.3c-1.4,0.4-4.3-1.7-4.8-3.5
			c-0.3-0.9-0.5-1.8-0.7-2.7c-0.1-1-0.2-2-0.2-2.8c0.2-6.1,2.5-11.1,5.8-15.8c4.5-6.5,10.4-11.6,16.7-16.4
			c4.6-3.6,9.4-6.9,14.1-10.5c1.3-1,1.8-0.8,2.7,0.4C250.7,74.9,250.8,74.8,246.9,77.7z M242.9,67.5c-6.1,4.7-12.4,8.9-18.3,13.8
			c-6.3,5.3-12.1,10.9-16,18.3c-2.8,5.3-4.1,10.9-3.3,17.4c-5.1-3.8-6.6-9-5-15.6c2.2-9.3,7.9-16.2,14.9-22.3
			c7.6-6.6,15.9-12.2,24.1-18.1c0.4-0.3,0.9-1,1.5-0.3c1.2,1.6,2.4,3.1,3.4,4.8C244.9,66.8,243.5,67,242.9,67.5z M214.6,170.4
			c1.9-2.6,5.5-3.8,8.4-2.8c2.9,1,4.7,3.9,4.6,6.6c-0.3,3.4-1.3,6-2.7,8.4c-0.3,0.6-0.7,0.9-1.4,0.7c-3.1-1-6.1-2-8.3-4.7
			C213,175.8,212.8,172.9,214.6,170.4z M236.8,225.4c0.8-4.1,4.6-5.8,8.1-3.5c1.6,1.1,2.9,2.4,3.7,4.2c2.3,5.1,4.2,10.2,2.1,15.9
			c-0.4,1.1-0.4,2.3-0.6,3.5c-6-2.6-10-7-12.3-12.9C236.8,230.3,236.3,227.9,236.8,225.4z M248.9,220.4c-3.3-3.1-3.4-3.6-2.5-8
			c0.8-4,0.4-7.8-1.8-11.3c0.7-0.7,1.2,0.1,1.7,0.4c8.3,5.3,11.5,13.3,11.9,22.7c0.2,6.1,0.2,6.2-3.3,9.3
			C254,228.5,252.6,223.9,248.9,220.4z M251.6,195.5c0-4.8,4.2-9,8.9-8.9c4.7,0.1,8.7,4.2,8.8,8.9c0,4.7-4.3,9-9,8.9
			C255.7,204.3,251.6,200.2,251.6,195.5z M262.5,225.4c0.4-4,0.6-8,2-11.8c2.1-5.7,6-9.9,11.8-13.2c-3.2,6.2-3.1,11.7,0.1,17.1
			c-7.2,2.9-9.2,9.2-10.7,16C262.8,231.4,262.2,228.7,262.5,225.4z M270.6,230.1c1-2.8,2.2-5.5,4.5-7.6c3.7-3.2,8-1.7,9,3.1
			c0.5,2.4,0,4.8-1,7c-2.1,4.6-4.5,9.2-9.6,11.4c-0.9,0.4-1.7,1.1-2.5,1.7C269,240.4,268.8,235.3,270.6,230.1z M296,182.6
			c-1.4-2.6-2.7-5.1-2.6-8.1c0-3.7,1.8-6.3,5-7.1c3-0.8,6.6,0.8,8.3,3.7c1.5,2.6,0.9,5.8-1.6,8.3c-2.1,2.1-4.8,3.1-7.6,3.9
			C296.7,183.5,296.4,183.3,296,182.6z M306.8,163.1c-0.6,0.7-1,1.9-2.4,1.3c-1.5-0.6-0.7-1.7-0.7-2.6c0-0.3,0-0.7,0.1-1
			c0.9-8.6,1.3-17.3,3.1-25.8c0.8-3.6,2.3-6.9,5.3-9.4c2.6-2.2,5.6-3.9,9.1-2.5c3.5,1.5,4.7,4.8,5.1,8.3c0.5,4.8-1.7,8.7-4.3,12.5
			c-3.6,5.2-7.6,10-11.7,14.8C309.2,160.3,308,161.7,306.8,163.1z M309.5,166.2c5.5-6.6,10.7-13.5,16.6-19.7
			c3.3-3.5,7.1-6.1,12.5-6.3c6.9-0.1,10.3,5.1,7.4,11.8c-1.6,3.7-4.5,6.2-8,7.8c-8.7,4-18,6-27,8.9c-0.7,0.2-1.3,0.1-1.8-0.5
			C308.4,167.3,309,166.7,309.5,166.2z M403.5,151.1c0,0.1,0,0.2,0,0.3c0,5.1-4.6,10.7-9.5,11.6c-3.4,0.6-6.2-0.6-8.3-3.3
			c-1.9-2.4-3-5.2-3.1-8.2c-0.1-2.4-1.1-3.1-3.3-3.1c-1.6,0-3.2-0.5-4.7-1.1c-7.9-3.3-9.1-11.4-2.5-16.8c2.9-2.3,6-3.5,9.9-2.8
			c5.8,1.1,11.7,1.9,17.7,1.9c0.7,0,1.6-0.2,1.6,1C401.2,137.5,402.6,144.3,403.5,151.1z M409.4,167c-0.3-8.7-2.4-17.1-3.6-25.7
			c-0.2-1.6,0-2.2,1.7-2.5c4.7-0.8,4.7-0.9,5.4,3.6c1.5,9.5,3.2,18.9,3.3,29.4c-0.2,6.6-1,13.9-5,20.5c-1.8,3-4.2,5.3-7.3,7
			c-0.8,0.4-1.5,0.7-2.4,0.6c-4.1-0.6-4.9-2.6-2.4-5.9c0.5-0.6,0.9-1.3,1.5-1.7C408.7,185.6,409.7,176.5,409.4,167z M397.6,182.5
			c-4.3,0-7.9-3.7-7.9-8.1c0-4.2,3.6-7.8,7.9-7.8c4.3,0,7.9,3.7,7.9,8C405.4,178.9,401.7,182.5,397.6,182.5z M367.5,150.8
			c7.1-0.1,12.6,5.4,12.7,12.5c0,7-5.4,12.6-12.3,12.6c-7.2,0-12.8-5.6-12.8-12.8C355.2,156.3,360.7,150.9,367.5,150.8z
			 M348.7,133.2c0-4.3,3.6-7.7,7.9-7.7c4.4,0,7.8,3.6,7.8,8.1c0,4.3-3.6,7.8-7.8,7.7C352.1,141.2,348.6,137.6,348.7,133.2z
			 M392.7,120c-0.5,5.3-0.5,5.4-5.6,4.7c-8.2-1.2-16.2-3.1-24.5-3.2c-8.9-0.1-17.4,1.1-23.5,8.6c-0.5,0.6-1.1,1.1-1.7,1.5
			c-1.3,0.9-2.5,2.6-4.5,1.2c-1.5-1.1-1.9-4.3-0.9-6.1c3.1-5.4,8-8.4,13.8-10.2c7.5-2.3,15.1-2.2,22.8-1.4c7.5,0.8,15,2.1,22.5,3.2
			C392.1,118.5,393.2,118.6,392.7,120z M353.5,181.5c2.8-2.4,5.4-2.4,8.2-0.1c3.2,2.6,4.3,6.2,4.4,10.4c-0.4,5-2,10-3.6,15.1
			c-1.2,3.9-2.4,7.8-3.6,11.7c-0.2,0.6-0.2,1.4-1.2,1.4c-0.8,0-1.2-0.4-1.4-1.2c-2.5-8.5-5.6-16.8-6.9-25.5
			C348.8,188.7,349.9,184.6,353.5,181.5z M362.4,220.3c2.9-9.2,5-18.7,9.1-27.5c1.5-3.3,3.8-6,7.3-7.6c6.9-3.1,11.9,0.1,12,9.1
			c0,3.5-2.6,7.2-6,10.5c-6.3,6.1-13.3,11.4-20,17c-0.6,0.5-1,0.8-1.7,0.2C362.5,221.6,362.2,221.2,362.4,220.3z M369.1,223.7
			c5.8-5,11.6-9.9,17.9-14.4c3.3-2.4,6.9-4.4,11.2-4.4c0.6,0,1.2,0,1.8,0.1c7.8,0.9,10.5,6.9,6.1,13.3c-3,4.2-7.5,5.7-12.2,6.6
			c-7.7,1.4-15.5,1.9-23.4,2.7c-1.1-0.6-2.8,1.4-3.6-0.6C365.8,224.8,368.1,224.5,369.1,223.7z M421.9,127.5
			c0.5,5.5,0.6,5.4-4.9,6.3c-2.7,0.4-5.4,0.9-8,1.3c-3.9,0.7-3.9,0.8-3.9-3.5c-0.9-2.5,1-3,3.2-3.4c3.8-0.7,7.7-1.4,11.5-2.3
			C421.2,125.7,421.7,125.8,421.9,127.5z M415.2,96.7c2.1,0.1,4.1,2,4.1,4.1c0,2.2-2.3,4.4-4.5,4.4c-2.1-0.1-3.9-2.1-3.9-4.3
			C410.9,98.7,412.9,96.7,415.2,96.7z M410.7,109.7c2.9,0.2,5.8,0.2,8.7,0.2c1.2,0,1.6,0.3,1.6,1.6c-0.1,1.6,0,3.2,0,5.1
			c-0.1,1.7,1.3,4.2-0.1,5.5c-1.2,1.2-3.6,1-5.6,1.4c-2.7,0.6-5.3,1.1-8,1.6c-1.2,0.3-1.9,0.3-1.5-1.4c1-4.1,1.7-8.1,2.4-12.2
			C408.4,109.9,409.1,109.6,410.7,109.7z M402.7,95.1c2.3,0.1,4.3,2.2,4.3,4.5c-0.1,2.4-2.2,4.3-4.5,4.2c-2.4-0.1-4.3-2.2-4.1-4.6
			C398.4,97,400.4,95.1,402.7,95.1z M395.4,123.8c0.9-4.6,1.7-9.2,2.4-13.8c0.2-1.5,0.8-1.7,2.1-1.5c5.4,0.8,5.4,0.7,4.3,6.1
			c-0.5,2.7-1.2,5.3-1.5,8c-0.3,2.5-1,4.2-3.3,3.3c-1.3-0.1-1.9-0.2-2.5-0.1C395.2,126,395.1,125.2,395.4,123.8z M389.5,92.1
			c2.7,0,5,2.3,5,5.1c0,2.7-2.2,4.9-4.8,5c-2.8,0.1-5.2-2.3-5.1-5.2C384.6,94.4,386.9,92.1,389.5,92.1z M387.8,106.6
			c0.6,0.1,1.2,0.2,1.8,0.3c5.3,0.8,5.2,0.8,4.3,6.3c-0.3,1.6-0.7,1.8-2.3,1.6c-8.9-1.3-17.8-3.1-26.8-3.6c-5.6-0.3-11.2-0.2-16.8,1
			c-7,1.5-13.3,4.6-18.2,11.1c-0.8-6.1,1.4-10.2,5.5-13.3c5.3-3.9,11.3-6.2,17.9-6.6C365,102.6,376.4,104.6,387.8,106.6z
			 M347.9,96.8c0-1.6,0.9-2.8,2.6-2.8c1.7-0.1,2.3,1.1,2.7,2.4c-0.4,1.7-1.2,2.8-2.9,2.8C348.9,99.2,347.9,98.3,347.9,96.8z
			 M357.3,94c0-2.4,2-4.3,4.5-4.3c2.4,0,4.4,2,4.4,4.4c0,2.3-2,4.4-4.4,4.4C359.3,98.6,357.3,96.5,357.3,94z M380.3,94.5
			c0.1,2.5-2.2,5-4.8,5.1c-2.8,0.2-5.3-2.3-5.3-5.1c0-2.6,2.2-4.9,4.8-5C377.8,89.5,380.3,91.8,380.3,94.5z M375.6,82.7
			c0.7,1.4,0.6,2.4-1.4,2.2c-2.6-0.2-5.2,0-7.8,0c0.4-3.1,1.8-4.9,4.2-5.1C372.8,79.6,374.5,80.6,375.6,82.7z M368.2,73.6
			c0,2.5-1.8,4.3-4.4,4.2c-2.4,0-4.4-2.1-4.3-4.4c0.1-2.3,2.2-4.3,4.6-4.2C366.4,69.4,368.2,71.3,368.2,73.6z M357.8,58.4
			c2.3,0,4.2,2,4.1,4.3c0,2.3-2,4.1-4.3,4c-2.2-0.1-4-1.9-4-4.1C353.6,60.2,355.5,58.4,357.8,58.4z M350.9,47.7
			c2.2,0,4.2,2.1,4.2,4.3c0,2.3-2,4.1-4.3,4.1c-2.2-0.1-4-1.9-4-4.1C346.7,49.6,348.6,47.7,350.9,47.7z M338.4,50.4
			c2.3,0,4.3,1.8,4.3,4.1c0,2.3-1.9,4.2-4.2,4.2c-2.2,0-4.2-2.1-4.2-4.3C334.3,52.2,336.1,50.4,338.4,50.4z M326.3,53.7
			c2.3,0,4.4,2,4.4,4.3s-2.1,4.3-4.5,4.3c-2.3,0-4.3-2.1-4.2-4.5C322.2,55.5,324,53.7,326.3,53.7z M328.6,67.1
			c5.8-1.5,11.4-3.4,16.8-5.8c1.1-0.5,1.9-0.9,2.5,0.8c2.9,7.7,6.8,14.8,11.1,21.7c0.8,1.3,1,1.8-0.9,2.2
			c-7.4,1.5-13.8,4.7-17.9,11.4c-0.8,1.2-6.9,7.3-8.1,8.2c-1.7,1.2-3.3,2.4-5.3,3.9c0-4.3-0.9-8.1-2.4-11.7
			c-0.3-0.6-0.2-1.1,0.1-1.7c4.3-9,2.3-17.3-2.9-25.3c-0.3-0.4-0.5-0.9-0.8-1.3c0-0.1,0-0.2-0.1-0.4C323.5,68.4,326,67.7,328.6,67.1
			z M322.2,83.6c0.1,1.7-0.8,2.8-2.5,2.8c-1.6,0-2.5-1-2.5-2.6c-0.1-1.6,0.8-2.5,2-2.6C321.1,81.1,322.1,82,322.2,83.6z M311,56.5
			c1.6-0.9,3.3-1.1,4.9-0.1c1.5,0.9,2.5,2.3,2.5,4.4c-0.1,0.4-0.1,1-0.3,1.6c-0.6,1.6-1.2,2.3-2.7,0.6c-1.4-1.6-3-3.1-4.5-4.5
			C309.8,57.6,309.9,57.1,311,56.5z M313.6,69.6c2.5,0.1,4.1,1.9,4.1,4.5c-0.1,2.5-2,4.5-4.3,4.5c-2.3,0-4.3-2.3-4.2-4.8
			C309.2,71.3,311.1,69.5,313.6,69.6z M303.5,59.8c2.8,0,4.8,2.1,4.8,4.8c0,2.8-2.2,5.2-4.9,5.2c-2.6,0-4.9-2.4-4.8-5.2
			C298.7,61.7,300.8,59.7,303.5,59.8z M291.7,51.4c2.7,0,4.8,2.2,4.9,4.9c0,2.8-2.3,5.2-4.9,5.1c-2.7,0-4.8-2.3-4.8-5.2
			C286.9,53.4,288.9,51.4,291.7,51.4z M280.7,44.5c2.5,0,4.3,1.8,4.2,4.4c0,2.4-1.9,4.3-4.1,4.3c-2.4,0-4.2-1.9-4.2-4.5
			C276.6,46.2,278.3,44.5,280.7,44.5z M274.7,62.7c-2,2.8-4,5.7-6,8.5c-0.3,0.5-0.7,0.9-1.6,2c-1.4-1.7-2.7-3.2-3.9-4.8
			c-0.8-1.1,0.4-1.7,0.8-2.4c2.3-3.5,4.7-6.9,6.9-10.4c0.8-1.3,1.3-1.6,2.6-0.6C277.8,58.3,277.8,58.2,274.7,62.7z M270.9,36.8
			c2.3,0,4,1.7,4,4.1c0,2.4-1.9,4.4-4.1,4.3c-2.3,0-4-2-3.9-4.4C267,38.4,268.6,36.8,270.9,36.8z M260.6,29.6
			c2.3,0.1,3.9,1.8,3.8,4.2c-0.1,2.5-1.9,4.3-4.2,4.2c-2.1-0.1-3.9-2-3.9-4.3C256.4,31.2,258.2,29.5,260.6,29.6z M250.1,36.8
			c2.3,0.1,3.9,1.9,3.9,4.2c-0.1,2.4-2,4.3-4.2,4.2c-2.1-0.1-3.8-2-3.9-4.3C246,38.5,247.7,36.7,250.1,36.8z M251.8,58.4
			c1.8,2.7,3.6,5.4,5.4,8.1c0.3,0.4,0.5,0.9,0.8,1.3c0,0.5-4.1,4.9-4.5,4.8c-0.4-0.2-0.8-0.6-1.1-1c-2.8-3.9-5.6-7.9-8.4-11.8
			c-0.7-1-0.6-1.5,0.4-2.3C248.7,53.7,248.7,53.7,251.8,58.4z M240.1,44.5c2.4,0,4.1,1.8,4.1,4.2c0,2.5-1.8,4.5-4.2,4.5
			c-2.3,0-4.2-2.1-4.2-4.5C236,46.3,237.7,44.5,240.1,44.5z M229.3,51.4c2.9,0,4.9,2.2,4.8,5.1c-0.1,2.8-2.3,4.9-4.8,4.9
			c-2.7,0-4.8-2.3-4.8-5.2C224.5,53.4,226.5,51.4,229.3,51.4z M217.3,59.8c2.8,0,4.8,1.9,4.8,4.8c0,2.8-2.1,5.2-4.8,5.2
			c-2.6,0-4.9-2.5-4.9-5.2C212.5,61.9,214.6,59.7,217.3,59.8z M207.4,78.6c-2.2,0-4.2-2.1-4.3-4.6c-0.1-2.5,1.7-4.4,4.2-4.4
			c2.5-0.1,4.4,1.8,4.4,4.3C211.8,76.4,209.7,78.6,207.4,78.6z M207.8,55.8c0.4,0.2,1.2,0.4,2,0.7c1.1,0.5,1.4,1,0.3,2
			c-1.7,1.5-3.4,3.1-4.9,4.8c-1.1,1.1-1.6,0.8-2.1-0.4C201.5,59.6,203.9,55.8,207.8,55.8z M203.8,83.6c-0.1,1.6-0.8,2.7-2.4,2.8
			c-1.8,0.1-2.7-1.1-2.7-2.7c0-1.5,0.9-2.5,2.5-2.5C202.9,81.2,203.7,82.1,203.8,83.6z M194.7,53.7c2.3,0.1,4.1,2.1,4.1,4.3
			c0,2.2-2.1,4.4-4.2,4.3c-2.4-0.1-4.4-2.3-4.4-4.7C190.3,55.3,192.3,53.5,194.7,53.7z M182.6,50.4c2.3,0.1,4.2,2.2,4,4.4
			c-0.2,2.1-2.3,4.1-4.3,3.9c-2.2-0.2-4.3-2.5-4.2-4.7C178.3,52,180.4,50.3,182.6,50.4z M200.2,69.1c-3.6,5.3-6.2,10.7-6.3,17
			c0,2.6,0.2,5.2,1.3,7.5c1.1,2.4,1.2,4.5,0.2,6.9c-1.2,2.7-1.4,5.7-1.6,9.1c-3.2-2.9-6.6-5.2-10.4-6.7c-0.5-0.2-0.7-0.6-0.9-1.1
			c-3.2-9.3-10.4-13.7-19.4-15.7c-2.4-0.5-2.2-1.1-1.1-2.8c4.2-6.8,8-13.8,10.9-21.3c0.3-0.8,0.5-1.6,1.8-1
			C182.8,64.7,191.3,67,200.2,69.1z M172.9,96.6c0.1,1.6-0.9,2.4-2.4,2.7c-1.6-0.2-2.7-1-2.7-2.7c0-1.6,1-2.5,2.6-2.5
			C171.9,94,172.9,95,172.9,96.6z M163.7,94.1c0,2.4-2.1,4.5-4.5,4.6c-2.3,0-4.4-2-4.4-4.4c-0.1-2.4,2.1-4.5,4.5-4.5
			C161.6,89.8,163.6,91.7,163.7,94.1z M169.8,47.7c2.3,0,4.3,2.3,4.2,4.6c-0.1,2.1-1.8,3.7-4.1,3.7c-2.4,0-4.2-1.8-4.2-4.2
			C165.8,49.7,167.8,47.6,169.8,47.7z M163,58.4c2.3,0,4.3,1.9,4.3,4.2c0,2.1-1.9,4.1-4,4.1c-2.2,0-4.2-2-4.3-4.2
			C158.8,60.3,160.7,58.4,163,58.4z M156.9,69.2c2.3,0,4.4,2.1,4.4,4.4c0,2.2-1.8,4.1-3.9,4.2c-2.4,0.1-4.6-2-4.7-4.4
			C152.5,71.3,154.6,69.2,156.9,69.2z M145.5,82.3c1-1.8,2.6-2.7,4.6-2.5c2.1,0.1,3.4,1.4,4.2,3.2c0.6,1.3,0.3,2.1-1.4,1.9
			c-1.1-0.1-2.2,0-3.3,0c0,0,0,0,0,0.1c-0.8,0-1.7,0-2.5,0c-0.7,0-1.7,0.4-2.1-0.3C144.5,83.9,145.1,83,145.5,82.3z M145.5,89.6
			c2.7,0,5,2.3,5,5c0,2.8-2.3,5-5.1,5c-2.7,0-4.9-2.4-4.8-5.2C140.7,91.7,142.9,89.6,145.5,89.6z M165.1,103.1
			c7.1,0.1,13.4,2.2,19.2,5.9c3.8,2.3,6.3,5.7,6.9,10.2c0.1,1.1,0.3,2.2-0.4,3.5C182.8,113,172,111,160.4,111
			c-10.5,0-20.8,2.2-31.1,3.7c-1.6,0.2-2.1-0.1-2.3-1.6c-0.9-5.4-1-5.4,4.5-6.3C142.6,105,153.7,103,165.1,103.1z M131.4,92.1
			c2.8,0.1,4.9,2.4,4.8,5.2c-0.1,2.8-2.4,5-5.2,4.8c-2.8-0.1-4.8-2.5-4.7-5.3C126.5,94.2,128.8,92,131.4,92.1z M123.7,113.4
			c0.5,2.9,0.9,5.8,1.5,8.8c0.7,3.7,0.7,3.7-3.3,3.7c-2.4,0.8-3.2-0.7-3.6-3.2c-0.6-3.8-1.4-7.7-2.3-11.4c-0.4-1.6,0.1-2,1.6-2.2
			C122.7,108.3,122.7,108.3,123.7,113.4z M118.3,95.2c2.3,0,4.2,1.9,4.3,4.2c0.1,2.4-1.8,4.4-4.2,4.5c-2.4,0.1-4.4-1.9-4.4-4.3
			C113.9,97.1,115.9,95.2,118.3,95.2z M105.8,96.7c2.1,0.1,4.2,2.4,4.2,4.4c0,2.1-2.2,4.2-4.4,4.1c-2.1-0.1-4-2.1-4-4.2
			C101.5,98.8,103.7,96.6,105.8,96.7z M100.3,110.3c1.1-1,3.7-0.3,5.6-0.4c0.3,0,0.5,0,0.8,0c1.8,0.2,4.2-1.1,5.3,0.2
			c1.1,1.2,1,3.5,1.4,5.3c0.6,2.7,1.1,5.5,1.7,8.2c0.3,1.3,0.2,1.9-1.4,1.6c-4.2-0.9-8.4-1.8-12.7-2.6c-1.2-0.2-1.4-0.9-1.3-2
			c0.2-1.5,0.2-3,0.3-4.6C100.1,114.1,99,111.5,100.3,110.3z M98.5,130.8c0.9-5,0.8-5,5.9-4.1c2.6,0.5,5.2,1,7.7,1.5
			c3.6,0.7,3.6,0.7,3.5,4.4c-0.1,3.2-0.1,3.2-3.2,2.6c-4.1-0.7-8.2-1.4-12.3-2.1C98.7,133.1,98.2,132.5,98.5,130.8z M99.4,136.5
			c5.7,0.5,5.7,0.6,4.8,6.3c-1.6,10.3-3.6,20.5-3.2,30.9c0.3,8.6,2,16.7,7.7,23.6c1.2,1.4,2.5,2.7,3.8,4.2c-5.8,0.7-10-1.7-13.1-6.3
			c-5.1-7.4-6.6-15.6-6.2-24.5c0.4-11.1,2.7-21.9,4.4-32.8C97.7,136.6,98.2,136.4,99.4,136.5z M53,213.4c1.1,0.5,1.7,1,0.4,2.1
			c-1.5,1.4-2.9,2.9-4.3,4.4c-0.5,0.5-0.9,1.6-1.7,1.3c-0.7-0.3-1.1-1.3-1.3-2.1c-0.1-0.4-0.2-0.8-0.2-1.1
			C45.9,214.2,49.8,211.8,53,213.4z M43.8,204.8c0-2.2,2-4.2,4.2-4.3c2.3-0.1,4.4,1.9,4.4,4.3c0,2.5-1.8,4.4-4.2,4.4
			C45.8,209.2,43.8,207.1,43.8,204.8z M54.7,222.9c2.7,0,5.2,2.3,5.2,4.9c0,2.7-2.4,4.8-5.3,4.8c-2.8,0-4.8-2-4.8-4.8
			C49.9,225,52,222.9,54.7,222.9z M59.8,217.8c0-2.6,1.7-4.3,4.3-4.3c2.6,0,4.5,1.8,4.6,4.2c0,2.4-2.2,4.4-4.7,4.3
			C61.5,222,59.8,220.3,59.8,217.8z M74.5,220.1c5.3-5.2,11.6-8.4,18.7-9.8c5.4-1.1,10.1,0.4,13.9,5.3c-14-1.3-23.6,6.1-32.1,15.3
			c-6.4,6.9-11.6,14.9-17.2,22.5c-1.1,1.4-1.7,1.6-3.1,0.5c-4.1-3.1-4.1-3-1.1-7.2C60,237.5,66.4,228.1,74.5,220.1z M71.3,211.7
			c-0.1-1.6,0.8-2.6,2.4-2.7c1.7-0.1,2.8,0.8,2.8,2.6c0,1.6-1,2.4-2.5,2.6C72.3,214.1,71.3,213.4,71.3,211.7z M93.3,99.1
			c2.2,0.1,4.2,2.1,4.1,4.3c0,2.2-1.8,4-4.1,4c-2.3,0-4.2-1.8-4.2-4.2C89.1,100.9,91,99,93.3,99.1z M90.9,111.5
			c2.1,0,4.2,2.3,4.3,4.4c0,2.2-2.1,4.2-4.3,4.2c-2.3-0.1-4.1-2-4-4.4C86.9,113.5,88.9,111.5,90.9,111.5z M89.5,124
			c2.4,0,4.4,2,4.3,4.4c0,2.4-2,4.3-4.4,4.3c-2.3,0-4.2-1.9-4.2-4.2C85.1,126.1,87.2,124,89.5,124z M87,136.5
			c2.8-0.1,5.2,2.1,5.2,4.8c0.1,2.7-2.2,5.1-4.9,5.1c-2.7,0.1-5.1-2.2-5.1-4.9C82.1,138.9,84.4,136.6,87,136.5z M84.8,150.8
			c2.7,0.1,4.8,2.3,4.8,4.9c0,2.8-2.3,5-5.1,5c-2.7,0-5.1-2.5-5-5.1C79.7,152.9,82,150.7,84.8,150.8z M86.6,177.9
			c1.6,0.4,2.6,1.2,2.6,2.9c0,1.5-0.9,2.4-2.4,2.4c-1.7,0-2.8-0.9-2.8-2.6C84,179,85.1,178.2,86.6,177.9z M79.7,169.4
			c0-2.5,2-4.4,4.5-4.4c2.4,0,4.4,2,4.4,4.3c0,2.4-2.1,4.5-4.6,4.4C81.7,173.8,79.8,171.8,79.7,169.4z M76.1,173.2
			c2,9.1,6.3,16.5,15.7,19.7c0.6,0.2,1,0.6,1.3,1.2c1.4,3.8,3.6,7,6.8,10.4c-4.4-0.1-8,0.7-11.5,2.1c-0.8,0.3-1.5,0.5-2.4,0.1
			c-8.4-4-16.3-2.3-24,2.3c-0.9,0.5-1.6,1.3-2.8,1.5c-1.9-7.7-3.9-15.4-6.9-22.8c-1.5-3.6-1.5-3.6,2-5.1c6.8-2.8,13.1-6.4,19.3-10.3
			C75.2,171.2,75.6,171.1,76.1,173.2z M69.9,159.6c0.2-2.2,1.5-3.7,3.7-4.3c1.2-0.4,1.6-0.1,1.5,1.1c-0.1,1.3-0.2,2.5-0.2,3.8
			c0,0,0,0,0.1,0c0,0.9-0.1,1.9,0,2.8c0.3,2.3-0.9,2.2-2.4,1.4C70.7,163.3,69.6,161.7,69.9,159.6z M63.5,162.8
			c2.4-0.1,4.4,1.8,4.5,4.3c0,2.3-1.8,4.3-4.1,4.4c-2.4,0.1-4.4-1.8-4.4-4.3C59.4,164.9,61.2,162.9,63.5,162.8z M52.7,169.1
			c2.3,0,4.2,1.9,4.2,4.2c0,2.3-2,4.2-4.3,4.1c-2.3,0-4.2-2-4.1-4.3C48.6,171,50.5,169.2,52.7,169.1z M38,180.4
			c-0.1-2.3,1.8-4.4,4-4.4c2.1-0.1,4.2,2,4.3,4.3c0,2.2-2,4.3-4.2,4.2C39.8,184.4,38,182.7,38,180.4z M40.6,192.4
			c0.1-2.2,2-3.9,4.2-3.9c2.4,0.1,4.1,1.9,4,4.3c0,2.3-2,4.1-4.3,4C42.2,196.8,40.4,194.8,40.6,192.4z M31,264.6
			c-2.3-0.1-4-2-3.9-4.2c0.1-2.3,1.8-4,4.1-3.9c2.4,0,4.4,1.9,4.3,4.1C35.4,262.8,33.3,264.7,31,264.6z M38.7,254.8
			c-2.4-0.1-4.1-1.9-4-4.4c0.1-2.4,1.9-4.1,4.3-4.1c2.4,0.1,4.4,2.1,4.3,4.4C43.3,253.1,41.2,254.9,38.7,254.8z M41.6,239.8
			c-0.1-2.8,1.9-4.9,4.7-4.9c2.9-0.1,5.2,2,5.3,4.7c0,2.7-2.2,4.9-5,5C43.8,244.6,41.7,242.6,41.6,239.8z M61.6,265.2
			c-3.4,3.7-3.3,3.8-7.4,1c-2.9-1.9-5.7-4-8.7-5.8c-1.3-0.8-1.3-1.4-0.3-2.4c0.9-1,1.7-2.1,2.5-3.2c0.3-0.4,0.4-1,1.1-0.9
			c0.4,0.3,0.8,0.6,1.3,0.9c3.7,2.7,7.5,5.4,11.2,8C62.4,263.5,62.7,264,61.6,265.2z M95.4,249.5c-4.6,0-7.8-3.1-7.7-7.6
			c0-4.3,3.2-7.5,7.6-7.6c4.4-0.1,8.2,3.5,8.2,7.7C103.4,246.1,99.8,249.5,95.4,249.5z M105.5,227c-7.5-0.5-12.9,2.4-18,6.4
			c-6.5,5.1-11,12-15.8,18.6c-1.9,2.7-3.9,5.3-5.8,8.1c-0.7,1-1.2,1-2.2,0.3c-4.3-2.9-4.4-2.9-1.2-7.2c6.2-8.4,12-17.1,19.8-24.2
			c5.6-5.1,11.8-9.4,19.7-9.8c3.3-0.2,6.9-0.5,9.2,2.9c1.7,2.7,0.9,4.5-2.3,4.9C107.5,227.1,106.1,227,105.5,227z M114.6,246.9
			c-5.4-3-6.2-7.8-2-12.4c3.8-4.3,8.8-5,16-5c6.6,0.6,14.9,1.4,23.3,2.2c0.8,0.1,1.5,0.2,1.6,1.2c0.1,1-0.5,1.3-1.2,1.7
			c-7.5,4-14.8,8.3-22.6,11.8C124.9,248.6,119.8,249.7,114.6,246.9z M155.7,240c-3.7,6.9-7.1,13.9-11.4,20.4
			c-2.8,4.4-6.4,7.7-11.6,7.9c-4.8,0-7.4-2.6-7.3-7c0.1-4.1,2.1-7.3,5.2-9.8c5.2-4.3,11.4-7,17.3-10.2c1.9-1.1,3.9-2,5.9-3.1
			c0.7-0.4,1.3-0.9,2-0.1C156.4,238.8,156,239.3,155.7,240z M134.7,203.4c-3.8-4-5.7-8.6-4.1-14.2c1-3.4,3.3-5.2,6.9-5.2
			c3.9,0.3,7.4,2.3,10,5.9c3.2,4.4,4.6,9.6,6.1,14.7c1.6,5.2,3.1,10.4,4.7,15.6c0.3,0.8,0.3,1.4-0.5,2c-0.8,0.5-1.2,0.2-1.8-0.3
			C148.9,215.8,141.2,210.3,134.7,203.4z M172.2,235.4c-1.9,1.2-5.8,2.5-7.9,2.5c-3.4,0-6.3-2-7-4.9c-0.8-3,0.8-6.7,3.5-8.4
			c2.6-1.6,5.8-1,8.3,1.5c2.1,2,3,4.7,3.9,7.4C173.2,234.4,173,234.9,172.2,235.4z M176.8,229.8c-5.1-12.8-1.7-27.5,8.5-36.6
			c10-9.1,24.8-10.9,37.1-4.8c1.7,0.9,2.2,1.7,1.4,3.5c-0.8,1.9-1.3,3.8-2,5.9c-4.5-2.8-9.1-4.5-14.3-4.5
			c-18.9,0-30.6,19.3-21.7,36.1c1.6,2.9,1.6,3.1-1.5,4C178.5,235,179.5,236.5,176.8,229.8z M187.8,247.7c-1.9-2.3-3.2-5-4.5-7.7
			c-0.3-0.5-0.8-1.3,0.2-1.6c5.7-2,11.5-4,17.5-1.3c2,0.9,3.7,2.1,4.9,4c1.8,2.7,2,5.6,0.5,8.4c-1.6,3.1-4.3,4.2-7.7,4.1
			C194.1,253.6,190.6,251.2,187.8,247.7z M216.6,268.9c-3.7-0.2-7.4-0.4-11.1-1.3c-7-1.8-11.9-6.3-15.7-12.8c3.5,2,6.9,2.9,10.5,2.5
			c2-0.2,3.8-0.8,5.5-1.7c0.5-0.3,1.1-1,1.6,0.1c2.9,6.5,8.8,8.5,15.1,9.8c0.1,0,0.2,0.2,0.4,0.4
			C221.3,267.6,219.6,269.1,216.6,268.9z M219,260.6c-2.7-1-5.1-2.2-7-4.5c-1.4-1.7-2.1-3.5-1.2-5.7c0.9-2.1,2.6-3.1,4.8-3.3
			c2.5-0.3,4.9,0.3,7.2,1.3c5.6,2.5,9.9,6.3,12.1,12C229.8,262.5,224.4,262.6,219,260.6z M243,261.4c-6.6-3.3-9.1-8.7-9.2-15.7
			c0-1.2,0.4-1.4,1.4-1.4c6.6,0.1,11.9,2.3,15.2,8.4c2.3,4.4,4,9.1,5.7,14.1C251.5,264.8,247.1,263.5,243,261.4z M254,247.4
			c-0.7-5.7,2.3-9.7,5.8-13.5c0.6-0.7,1-0.3,1.4,0.2c4.7,4.7,7.1,10.1,5,16.8c-1.4,4.7-3.7,9.1-5.8,14.1
			C257.9,258.9,254.7,253.6,254,247.4z M277.7,261.5c-4,2-8.2,3.4-13.1,5.3c2.1-5.3,3.5-9.9,5.9-14.3c3.3-6,8.6-8.1,15-8.2
			c1.2,0,1.4,0.4,1.4,1.5C287,252.9,284.3,258.2,277.7,261.5z M285.8,260.6c2.3-5.8,6.6-9.6,12.3-12.1c2.4-1,4.8-1.6,7.4-1.3
			c4.5,0.6,6.3,4.8,3.5,8.5c-2.8,3.8-7,4.8-11.2,6C293.6,262.9,289.7,261.2,285.8,260.6z M312.2,268.3c-2.5,0.4-5.1,0.4-7.6,0.6
			c-3,0.3-5-1-6.8-3.3c2.1-0.6,4.1-1.1,6-1.8c4.1-1.5,7.6-3.8,9.4-8c0.3-0.7,0.4-1.2,1.4-0.6c4.9,2.9,9.8,2.8,14.8,0.4
			c0.2-0.1,0.5,0.1,0.9,0.1C326.3,262.9,320.2,267,312.2,268.3z M337.5,240.3c-1.9,3.7-3.8,7.4-7.1,10.1c-2.4,2-5.2,3.2-9.1,3.1
			c-3.2,0-6-1.6-7.2-4.8c-1.3-3.3-0.5-6.9,2.4-9.5c4.1-3.6,9-4.1,14.1-3c2,0.4,3.9,1.2,5.9,1.7C337.8,238.4,338.2,238.9,337.5,240.3
			z M342.7,233.1c-0.7,1.4-1.4,2-3,1.3c-1.9-0.8-4.6-0.8-5.5-2.2c-1-1.4,1.3-3.3,2-5c4-10.2,1.5-21.1-6.5-28.2
			c-7.6-6.7-19.2-7.8-28.5-2.4c-1.8,1.1-2.5,0.8-2.8-1.1c-0.1-0.3-0.2-0.7-0.3-1c-1.9-5.4-1.9-5.4,3.5-7.5
			c21.8-8.5,44.8,7.2,44.8,30.5C346.4,223.1,345,228.2,342.7,233.1z M363.6,233.1c-0.8,3-3.6,4.9-7.2,4.8c-2.9-0.1-5.4-1.3-7.9-2.6
			c-0.8-0.4-0.9-0.9-0.6-1.7c0.9-2.7,1.8-5.3,3.8-7.4c2.6-2.6,5.8-3.2,8.5-1.6C362.9,226.3,364.4,229.9,363.6,233.1z M387.9,268.4
			c-3.6-0.2-6.8-2.3-9.4-5.4c-4.3-5.1-7-11.2-10.2-17c-1.1-2-2.1-4.1-3.2-6.1c-0.3-0.6-0.7-1.1,0-1.8c0.6-0.6,1.2-0.4,1.8-0.1
			c7.1,3.9,14.6,7.3,21.4,11.9c3.8,2.6,6.7,5.9,7.2,10.6C396,265,392.9,268.3,387.9,268.4z M410.6,242.1c-1.4,4.1-4.9,5.7-8.9,6.3
			c-3.8,0.6-7.4-0.5-10.9-2.1c-7.6-3.5-14.9-7.7-22.3-11.7c-0.6-0.4-1.4-0.6-1.1-1.7c0.2-1,0.8-1.2,1.6-1.3
			c8.5-0.8,16.9-1.6,23.8-2.2c6.1,0,10.4,0.4,13.9,3.4C409.4,235.3,411.9,238.1,410.6,242.1z M425.5,249.5c-4.5,0-8-3.3-8-7.6
			c0-4.3,3.7-7.8,8.1-7.8c4.4,0.1,7.5,3.3,7.5,7.7C433.2,246.5,430.1,249.5,425.5,249.5z M452.9,257.2c-4.8-6.4-9-13.2-14.5-19.1
			c-3.7-4-8-7.4-13.1-9.6c-2.9-1.2-5.8-1.8-9-1.6c-1.2,0.1-2.4,0.2-3.6,0.1c-1.6-0.1-3.4-0.2-3.9-2.2c-0.4-1.5,1.3-4.2,3-4.8
			c2.2-0.8,4.5-1,6-1c6.6,0.4,11.7,3,16.3,6.4c5.3,3.8,9.6,8.6,13.6,13.7c4.3,5.5,8.3,11.2,12.5,16.8c0.8,1.1,0.7,1.6-0.4,2.4
			C455.9,261.4,456,261.4,452.9,257.2z M464,268c-1,0.7-1.6,0.4-2.4-0.3c-4-3.6-4-3.5,0.3-6.6c3-2.2,6.1-4.3,9.1-6.6
			c1.1-0.8,1.6-0.8,2.4,0.4c1,1.5,2.1,2.9,3.3,4.4c-0.4,0.3-0.7,0.6-1,0.8C471.8,262.7,467.8,265.3,464,268z"/>
	</g>
	<g>
		<path class="st0" d="M617.8,101.5c-0.8-0.5-1.6-0.3-2.5-0.3c-6.1,0-12.3,0-18.4,0c-1.5,0-2.1-0.3-2.1-2c0.1-4,0.1-8,0-12
			c0-1.4,0.3-2,1.8-1.9c12.9,0,25.7,0,38.6,0c1.2,0,1.8,0.1,1.9,1.6c1.5,19.7-10.5,37.7-29.1,43.3c-23.6,7.2-48.2-7.1-53.1-31.3
			c-6-29.8,19.5-53.1,44.5-49.9c9.2,1.2,17.2,4.5,24.2,10.5c1.3,1.1,1.6,1.8,0.2,3.1c-3.1,2.8-6,5.8-8.8,8.9c-1.3,1.4-1.9,1.1-3.2,0
			c-7.7-6.6-18.8-7.9-27.4-3.2c-9.1,4.9-14.3,14.7-13.2,24.9c1,9.9,8.5,18.6,18,21.3c10.6,2.9,22.1-1.7,27.8-11.2
			C617.4,102.8,617.9,102.3,617.8,101.5z"/>
		<path class="st0" d="M923,131.5c-7.4,0-14.8-0.1-22.2,0c-1.8,0-2.3-0.5-2.3-2.3c0-26,0-52,0-77.9c0-1.7,0.6-2.1,2.2-2.1
			c15.1,0.1,30.2,0.1,45.2,0c1.7,0,2.1,0.5,2.1,2.1c-0.1,4.1-0.1,8.2,0,12.3c0,1.7-0.5,2.1-2.1,2.1c-9.5-0.1-18.9,0-28.4-0.1
			c-1.9,0-2.5,0.5-2.4,2.4c0.2,3.8,0.2,7.7,0,11.5c-0.1,1.9,0.3,2.6,2.5,2.6c6.6-0.1,13.3,0,19.9-0.1c1.7,0,2.4,0.4,2.3,2.2
			c-0.1,4.1-0.1,8.2,0,12.3c0.1,1.7-0.5,2.1-2.2,2.1c-6.7-0.1-13.5,0-20.2-0.1c-2,0-2.4,0.6-2.4,2.4c0.1,3.9,0.1,7.8,0,11.8
			c-0.1,1.8,0.5,2.3,2.2,2.3c9.4-0.1,18.7,0,28.1-0.1c2,0,2.6,0.5,2.5,2.5c-0.2,3.7-0.2,7.5,0,11.2c0.1,2.1-0.4,2.9-2.7,2.9
			C937.8,131.4,930.4,131.5,923,131.5z"/>
		<path class="st0" d="M854.8,98.9c0-10.1-0.1-20.3,0.1-30.4c0-2.2-0.6-2.7-2.7-2.6c-5.1,0.1-10.2,0-15.3,0.1
			c-1.8,0-2.3-0.6-2.3-2.3c0.1-4.1,0.1-8.2,0-12.3c0-1.5,0.4-2,2-2c17.7,0,35.4,0,53.1,0c1.4,0,1.9,0.4,1.9,1.8
			c-0.1,4.3-0.1,8.5,0,12.8c0,1.6-0.5,2-2,2c-5.2-0.1-10.4,0.1-15.6-0.1c-2.2-0.1-2.7,0.6-2.6,2.7c0.1,20,0,40,0.1,60
			c0,2.4-0.6,3-3,2.9c-3.8-0.2-7.7-0.1-11.5,0c-1.8,0.1-2.3-0.5-2.3-2.3C854.8,119.2,854.8,109,854.8,98.9z"/>
		<path class="st0" d="M715.3,90.4c0-12.9,0-25.7-0.1-38.5c0-2.1,0.6-2.6,2.6-2.5c3.8,0.1,7.7,0.2,11.5,0c2.1-0.1,2.5,0.6,2.5,2.6
			c-0.1,19.8,0,39.7,0,59.5c0,4-0.6,3.6,3.5,3.6c9.1,0,18.2,0,27.3,0c1.8,0,2.4,0.4,2.3,2.3c-0.1,4.1-0.1,8.2,0,12.2
			c0,1.5-0.3,2.1-1.9,2.1c-15.2-0.1-30.5-0.1-45.7,0c-2.1,0-1.9-1-1.9-2.4C715.3,116.3,715.3,103.4,715.3,90.4z"/>
		<path class="st1" d="M985.3,145.3c-129.9,0-259.8,0-389.8,0c0-0.1,0-0.2,0-0.3c129.9,0,259.9,0,389.8,0
			C985.3,145.1,985.3,145.2,985.3,145.3z"/>
		<path class="st2" d="M809.1,180.3c1.1,0.9,0.2,1.5-0.3,2.1c-4.5,5.9-13.7,6.7-19.3,1.6c-5.7-5.1-5.8-14.3-0.2-19.5
			c5.5-5.2,14.6-4.6,19.3,1.1c0.2,0.2,0.3,0.4,0.5,0.6c0.3,0.5,0.9,1.1,0.2,1.5c-0.8,0.5-0.9-0.5-1.2-0.8c-4.1-4.8-9.9-6.2-15.1-3.5
			c-4.4,2.2-7.1,6.9-6.6,11.7c0.4,5,3.8,9.2,8.6,10.7c4.8,1.4,9.9-0.2,13-4.2C808.4,181.1,808.5,180.4,809.1,180.3z"/>
		<path class="st2" d="M885.5,187.3c-6.2,0-11.4-4-12.9-10c-1.5-6,1.2-12.1,6.6-14.9c5.4-2.9,12-1.7,16.1,2.8c0.3,0.3,0.6,0.6,0.8,1
			c0.3,0.5,1,1,0.3,1.5c-0.8,0.7-0.9-0.4-1.2-0.7c-2.9-3.6-6.6-5.3-11.2-4.8c-5.6,0.6-9.7,4.7-10.5,10.5c-0.8,5,2.2,10.3,7,12.5
			c4.9,2.2,10.7,0.9,14.1-3.2c0.3-0.3,0.5-0.7,0.8-1c0.2-0.3,0.4-0.9,0.9-0.5c0.5,0.4,0.4,0.9,0,1.3c-1,1.3-2.1,2.5-3.4,3.4
			C890.6,186.6,888.2,187.5,885.5,187.3z"/>
		<path class="st3" d="M842.5,187c-0.7-2-0.8-22.9-0.2-25.4c0.7,0.9,0.7,0.9,0.9,3.7c0.9-0.2,1.2-1.1,1.8-1.6
			c3.1-2.7,6.7-3.7,10.6-2.4c3.8,1.3,5.8,4.2,6.2,8c0.5,5.8,0.2,11.6,0.2,17.8c-1.5-0.8-1.1-1.8-1.1-2.6c-0.1-4.7,0-9.4-0.3-14
			c-0.2-4.4-2.6-7.3-6.1-8.2c-3.9-1-8.1,0.7-10.4,4.3c-0.8,1.2-1.2,2.4-1.1,3.8c0.1,4.7,0,9.4,0,14C843,185.2,843.3,186.1,842.5,187
			z"/>
		<path class="st4" d="M771.3,179.3c1.1,0.8,0.8,1.9,1.1,2.7c1,2.5,3.2,4.3,5.7,4.3c2.4,0,4.7-1.6,5.4-3.9c0.8-2.4-0.1-5-2.6-6.6
			c-2.2-1.4-4.7-2.5-6.8-4c-2.1-1.5-3.1-3.6-2.5-6.2c0.6-2.6,2.4-4.1,4.9-4.6c3-0.6,6.3,1.4,7.1,4.4c0.1,0.5,0.8,1.2-0.1,1.5
			c-0.9,0.4-0.8-0.5-1-1c-0.4-1.4-1.3-2.4-2.5-3.1c-2.2-1.2-5-0.7-6.4,1.2c-1.5,1.9-1.3,4.4,0.5,6.3c1,1.1,2.3,1.7,3.6,2.4
			c1.7,0.9,3.5,1.7,5,3c2.4,2.3,2.9,5.9,1.2,8.6c-1.8,2.8-5.3,4-8.5,2.7C772.4,185.6,770.7,182.7,771.3,179.3z"/>
		<path class="st2" d="M728.3,167.1c-0.6-1.3-0.9-2.8-2.1-3.7c-2-1.7-5.1-1.7-7,0.2c-2,2-1.9,4.7,0.2,6.8c1.7,1.7,4,2.5,6.1,3.6
			c2.3,1.3,4.2,3,4.5,5.8c0.5,3.8-2.1,7.2-5.8,7.6c-4.1,0.5-7.8-2.4-8.1-6.3c0-0.5-0.3-1.4,0.5-1.5c0.9-0.1,0.6,0.8,0.7,1.3
			c0.7,3.2,3.1,5.4,5.9,5.4c2.6,0,4.9-1.7,5.6-4.3c0.7-2.5-0.5-4.9-3.2-6.6c-2.3-1.4-5-2.2-6.9-4.2c-1.8-1.8-2.4-3.9-1.6-6.3
			c0.8-2.3,2.5-3.6,4.9-4c3.1-0.5,6.5,1.7,7.1,4.8C729.1,166.2,729.4,166.8,728.3,167.1z"/>
		<path class="st2" d="M941.1,167.3c-0.8-1.4-1-2.7-1.9-3.6c-2-2-5.3-2.2-7.3-0.2c-2,2-1.9,4.9,0.3,7c1.7,1.6,3.9,2.4,5.9,3.5
			c2.3,1.3,4.2,3,4.5,5.8c0.5,3.9-2.1,7.2-5.8,7.6c-4.1,0.5-7.7-2.3-8.1-6.3c0-0.5-0.4-1.4,0.5-1.5c1-0.1,0.6,0.8,0.7,1.3
			c0.7,3.2,3,5.4,5.9,5.4c2.6,0,4.9-1.7,5.6-4.3c0.7-2.5-0.4-4.8-3-6.4c-2.1-1.3-4.4-2.3-6.4-3.7c-2.2-1.5-3.2-3.8-2.5-6.5
			c0.6-2.6,2.5-4,5-4.5C938.4,160.2,942.2,163.7,941.1,167.3z"/>
		<path class="st2" d="M677.9,162c0.6-1.1,1.6-0.7,2.3-0.6c2.6,0.4,3.1-0.7,3-3.1c-0.1-1.9-0.3-3.8,0.2-5.9c1.3,0.4,0.8,1.4,0.8,2.1
			c0.1,1.3,0.1,2.6,0,3.8c-0.3,2.3,0.4,3.3,2.9,3c0.7-0.1,1.7-0.5,2.3,0.6c-0.8,1-1.9,0.6-2.8,0.5c-1.8-0.1-2.3,0.5-2.3,2.3
			c0.1,6.6,0,13.3,0,19.9c0,0.7,0.3,1.5-0.5,2.2c-1-0.6-0.6-1.6-0.6-2.4c0-6.5-0.1-13.1,0-19.6c0-2-0.6-2.5-2.4-2.3
			C679.8,162.6,678.7,163,677.9,162z"/>
		<path class="st0" d="M867.4,161.6c0.6,0.3,0.5,0.8,0.5,1.2c0,7.5,0,15,0,22.5c0,0.5,0.3,1.4-0.5,1.5c-0.9,0.1-0.7-0.8-0.7-1.3
			c0-7.6,0-15.2,0-22.7C866.8,162.2,866.8,161.8,867.4,161.6z"/>
		<path class="st5" d="M668.1,161.5c1.3,0.5,0.4,1.6,1,2.4c2-1.8,4.1-3.4,7-2.6c-0.1,0.7-0.5,0.8-0.9,0.9c-4.5,0.7-6.3,2.9-6.4,7.4
			c0,4.9,0,9.9,0,14.8c0,0.8,0.3,1.7-0.7,2.8C668.1,178.4,668.1,170,668.1,161.5z"/>
		<path class="st6" d="M867.2,152.5c1.2,0,1.9,0.5,2,1.6c0.1,1.3-0.6,2-1.8,2c-1,0-1.7-0.7-1.8-1.8
			C865.6,153.2,866.2,152.6,867.2,152.5z"/>
		<path class="st0" d="M1025.8,129.2c-7.6-16.9-15.1-33.8-22.7-50.7c-4.5-10.1-9-20.2-13.8-30.9c-12.6,28.1-25,55.8-37.5,83.9
			c5.9,0,11.4,0,16.9,0c1.1,0,1.4-0.7,1.7-1.5c1.4-3.1,2.8-6.2,4.1-9.3c0.5-1.2,1.1-1.9,2.6-1.8c8.1,0.1,16.2,0.1,24.3,0
			c1.5,0,2.1,0.5,2.6,1.8c1.3,3,2.8,6,4,9.1c0.6,1.4,1.4,1.8,2.9,1.8c4.5-0.1,9-0.1,13.5,0C1026.8,131.7,1026.5,130.9,1025.8,129.2z
			 M995.2,104.5c-4.3,0-8.6,0-12.9,0c-0.3-1,0.3-1.6,0.6-2.3c2.1-4.8,4.2-9.6,6.5-14.8c2.4,5.5,4.5,10.5,6.7,15.6
			C996.4,103.9,996.6,104.5,995.2,104.5z"/>
		<path class="st0" d="M707.3,129.1c-11.4-25.3-22.7-50.7-34-76c-0.7-1.6-1.5-3.3-2.5-5.4c-12.6,28.2-24.9,55.8-37.4,83.8
			c5.7,0,10.9-0.1,16.1,0c1.5,0,2.1-0.5,2.6-1.8c1.3-3.1,2.7-6.1,4-9.1c0.5-1.2,1.1-1.8,2.6-1.8c8.1,0.1,16.2,0.1,24.3,0
			c1.5,0,2.1,0.6,2.6,1.8c1.3,3,2.7,6,4,9.1c0.5,1.3,1.2,1.8,2.6,1.7c4.5-0.1,9-0.1,13.5,0C708,131.6,708.3,131.3,707.3,129.1z
			 M676.8,104.5c-4.3,0-8.6,0-13.3,0c2.5-5.7,4.9-11.2,7.5-17.1c2.4,5.6,4.6,10.7,6.8,15.8C678.2,104.2,677.8,104.5,676.8,104.5z"/>
		<path class="st0" d="M806,47.7c-4.8,10.6-9.3,20.8-13.8,30.9c-7.5,16.9-15.1,33.8-22.7,50.7c-0.7,1.6-0.8,2.4,1.4,2.3
			c4.6-0.1,9.2-0.1,13.8,0c1.5,0,2.1-0.5,2.6-1.8c1.3-3,2.7-6,4-9.1c0.5-1.2,1.1-1.8,2.6-1.8c8.1,0.1,16.2,0.1,24.3,0
			c1.5,0,2.1,0.5,2.6,1.8c1.3,3.1,2.7,6.2,4.1,9.3c0.3,0.8,0.6,1.5,1.7,1.5c5.5,0,11,0,17,0C831,103.5,818.6,75.8,806,47.7z
			 M811.9,104.5c-4.3,0-8.6,0-13.3,0c2.5-5.8,4.9-11.2,7.4-17.1c2.4,5.5,4.6,10.7,6.9,15.9C813.4,104.3,812.9,104.5,811.9,104.5z"/>
		<path class="st0" d="M869.3,223.1c-0.1-2.3-2-3-4-1.8c-1.9,1.3-3.8,2.5-5.8,3.8c-0.4,0.3-1.1,1-1.4,0.2c-0.4-1.1-1.1-2.1-1.5-3.2
			c-0.1-0.4,1-1.2,1.6-1.8c2.9-3.1,3.4-6.8,1.9-10.6c-1.4-3.6-5-6-9-6c-4.3,0-7.3,1.9-9.2,5.7c-0.4,0.8-0.7,1.7-1,2.8
			c-0.5-0.9-0.9-1.6-1.4-2.2c-2.4-3.3-7.1-4.4-10.7-2.5c-3.7,1.9-5.9,6.4-4.1,10.1c1.3,2.7,1.8,4.7-0.2,7.1
			c-0.5,0.5-0.3,1.6-0.3,2.5c0,3.1,0,6.3,0,9.5c0,4.6,2.1,6.7,6.7,6.7c6.5,0,12.9-0.1,19.4,0c4,0.1,7.1-0.8,8-5.5
			c2.5,1.6,4.7,3.2,7,4.6c2,1.3,4,0.6,4-1.7C869.4,234.9,869.4,229,869.3,223.1z M832.7,220.5c-3,0-5.5-2.5-5.5-5.5
			c0-3.1,2.7-5.8,5.7-5.7c2.9,0.1,5.5,2.8,5.5,5.7C838.2,218,835.7,220.5,832.7,220.5z M839.6,220.4c0.3-1.4,1.5-2.5,1.4-4.5
			c1,1.9,1.7,3.1,2.5,4.5C842.2,220.4,841,220.4,839.6,220.4z M851,220.5c-3.9,0-6.9-3.1-6.9-7c0-3.9,3-6.9,7-6.9c3.9,0,6.9,3,6.9,7
			C857.9,217.5,854.9,220.6,851,220.5z"/>
		<path class="st0" d="M743,204.5c0-1.2-0.3-1.7-1.6-1.7c-8.7,0-17.3,0-26,0c-1.2,0-1.6,0.4-1.6,1.6c0,5.5-0.1,11.1,0.1,16.6
			c0.3,8.2,6.9,14.5,14.9,14.3c8-0.2,14.1-6.5,14.2-14.7c0-2.4,0-4.8,0-7.1C743,210.5,742.9,207.5,743,204.5z M718.4,213
			c0.1-2,1.3-3,3.2-3.3c2,0.1,3.2,1.1,3.4,3.1c0.2,1.9-1.4,3.5-3.2,3.6C720.1,216.5,718.3,214.8,718.4,213z M731.1,228.1
			c-3.4,1-6.6,0.3-9.2-2.2c-0.9-0.8-2.2-2.2-1.3-3.1c0.8-0.7,2.7-0.8,4,0.3c2.1,1.8,4.5,2.1,6.5,0.6c1.6-1.1,3.1-1.2,4.7-1.1
			c0.2,0,0.3,0.1,0.6,0.2C736,225.8,733.9,227.4,731.1,228.1z M735.2,216.4c-1.8,0.1-3.3-1.6-3.3-3.7c0.3-1.7,1.2-2.9,3.3-2.9
			c1.9,0,3.4,1.5,3.3,3.4C738.3,215.2,737.1,216.3,735.2,216.4z"/>
		<path class="st0" d="M721.9,238.1c-1.9-1-4.4-0.8-6-1.7c-3.5-1.9-6.4-2.5-9.8,0.1c-0.7,0.5-2.5,0.6-3-0.3c-0.6-1,0.5-2,1.2-2.9
			c2.1-2.3,4.9-2.8,8.3-2.7c-1.3-2.8-2.4-5.3-2.5-8.1c-0.1-2.8-0.2-5.6-0.1-8.4c0-1.5-0.5-1.9-1.9-1.8c-3.2,0.1-6.5,0.1-9.7,0
			c-1.5,0-2.1,0.3-2,1.9c0.1,5.3,0,10.6,0.1,15.8c0,4.5,1.8,8.3,5.2,11.2c7,6.1,17.9,3.4,21-2.8
			C722.3,238.3,722.1,238.2,721.9,238.1z M700.9,222.4c0.1-2,1.4-3.1,3.3-3.2c1.7-0.1,3.4,1.7,3.3,3.5c-0.1,1.9-1.7,3.4-3.6,3.2
			C702,225.6,700.9,224.4,700.9,222.4z"/>
		<path class="st7" d="M760.5,220.5c-2.9-0.9-3.5-2.8-1.8-5.4c1.1-1.6,2.2-3.3,3-5c1.2-2.5,1.2-5.1,0-7.6c-0.6-1.4-1.7-2.4-3.3-2.4
			c-1.6,0-2.2,1.2-2.7,2.3c-0.4,1.1-1,2.3-0.9,3.4c0.7,5.5-1.3,9.7-4.5,14.2c-3.7,5.2,0,12.2,6.1,13.3c1.2,0.2,3-1,3.5,1.4
			c0.3,1.5,0.6,3,0.3,4.5c-0.3,1.1-0.8,2.2-2.4,2.2c0-0.2,0-0.4,0-0.5c1.3-2.2,1.2-3.9-0.5-4.8c-1.6-0.8-3-0.5-4,1
			c-1.1,1.6-0.5,3.9,1.3,5.1c3.4,2.1,7.1,0.3,7.3-3.7c0-0.9,0.1-1.9-0.2-2.8c-0.6-1.8-0.2-3,1.2-4.4
			C766.4,227.9,764.9,221.8,760.5,220.5z M757.3,205.1c0.3-0.7,0.6-1.8,1.7-1.4c0.9,0.3,1.2,1.2,1.1,2.1c-0.4,2.3-1.5,4.2-3.3,6.2
			C756.4,209.3,756.5,207.2,757.3,205.1z M755.9,231.7c-3.2-0.9-5-4.2-4-7.4c0.7-2.3,2.2-4,3.9-5.8c1,1.4,0.7,2.3-0.4,3.4
			c-2.3,2.3-2.1,5.7,0.1,7.2c0.3-1.6-0.5-3.6,1.9-4.4c0.4,1.5,0.7,3.1,1,4.6C759,231.8,758.4,232.4,755.9,231.7z M760.5,231
			c-0.5-2.7-0.9-4.7-1.3-7c1.7,0.1,2.3,1.1,2.7,2.3C762.6,228,762,229.4,760.5,231z"/>
		<path class="st8" d="M796.3,200.5c-12.6-0.1-22.7,9.5-22.8,21.6c-0.1,12.9,9.7,23,22.3,23c12.2,0,22.2-9.9,22.3-22.2
			C818.2,210.6,808.4,200.6,796.3,200.5z M795.7,243.1c-11.2,0-20.5-9.3-20.3-20.5c0.1-11.2,9.5-20.4,20.6-20.4
			c11.2,0.1,20.3,9.4,20.3,20.6C816.2,234.1,807,243.1,795.7,243.1z"/>
		<path class="st9" d="M691.2,173.4c3.4,0.1,6.8,0,10.2,0c3.6,0,7.2-0.1,10.7,0c2.3,0.1,2.3-0.8,1.9-2.5c-1.8-7.1-8.7-11.4-16.1-9.7
			c-5.4,1.2-9.5,6-10.1,11.8c-0.6,5.4,2.9,11.1,8,13.3c5.3,2.2,11.6,0.8,15.1-3.4c0.5-0.6,1.9-1.4,0.9-2.3c-0.9-0.8-1.1,0.8-1.6,1.3
			c-3.6,3.8-7.9,5.1-12.8,3.6c-4.8-1.5-7.6-4.9-8.4-10C688.8,173.7,689.5,173.4,691.2,173.4z M689.5,170.6c1.3-4.8,6.2-8.5,11.4-8.6
			c5.3-0.1,10.1,3.5,11.6,8.3c0.5,1.5,0.1,2-1.5,1.9c-3.4-0.1-6.8,0-10.2,0s-6.8,0-10.2,0C689.5,172.3,689.1,171.9,689.5,170.6z"/>
		<path class="st9" d="M814.4,173.4c6.9,0.1,13.8-0.1,20.7,0.1c2.5,0.1,2.7-0.9,2.2-2.8c-1.5-5.7-7-9.9-13.1-9.8
			c-6.1,0.1-11.5,4.4-12.8,10.2c-1.4,6.1,1.5,12.2,7.1,15c5.3,2.6,12,1.3,15.8-3.1c0.5-0.6,1.5-1.3,0.9-2.4c-0.1,0-0.2,0-0.3,0
			c-0.8,0.3-1,1.1-1.5,1.6c-3.6,3.7-7.9,5.1-12.8,3.5c-4.6-1.5-7.4-5-8.2-9.8C812.1,174.1,812.5,173.4,814.4,173.4z M812.9,170.3
			c1.4-4.8,6.5-8.4,11.7-8.3c5.3,0.1,10.1,3.8,11.4,8.6c0.4,1.4,0,1.6-1.3,1.6c-3.5,0-7,0-10.5,0c-3.3,0-6.6-0.1-9.9,0
			C812.7,172.3,812.5,171.7,812.9,170.3z"/>
		<path class="st10" d="M746.2,173.4c6.8,0.2,13.6,0,20.4,0.1c2.3,0,2.8-0.6,2.3-2.8c-1.5-5.7-7-10-13-9.9
			c-6.1,0-11.4,4.2-12.8,10.1c-1.5,6.1,1.5,12.4,7.2,15.1c5.3,2.6,12.1,1.1,15.8-3.4c0.5-0.6,1.3-1.2,0.7-2.3c-0.2,0-0.3,0-0.4,0.1
			c-0.4,0.5-0.7,0.9-1.1,1.4c-3.4,3.7-7.5,5.3-12.4,3.9c-4.9-1.4-7.7-4.7-8.8-9.6C743.6,174.2,743.9,173.3,746.2,173.4z
			 M744.5,170.3c1.4-4.7,6.5-8.4,11.6-8.3c5.3,0.1,10.1,3.8,11.4,8.6c0.4,1.3,0.1,1.6-1.2,1.6c-3.5,0-7,0-10.5,0
			c-3.3,0-6.6-0.1-9.9,0C744.3,172.3,744.1,171.7,744.5,170.3z"/>
		<path class="st2" d="M924.2,185.7c0-7.7,0-15.3,0-23c0-0.5,0.1-1.2-0.7-1.1c-0.6,0.1-0.5,0.8-0.5,1.3c0,1.4,0,2.8,0,4.6
			c-6.7-7.9-14.9-8.8-20.9-2.8c-5.5,5.5-5.1,14.9,0.8,19.8c5.1,4.2,14.4,4.8,20.2-4c0,1.8,0,3.5,0,5.2c0,0.5,0,1.1,0.7,1
			C924.3,186.7,924.2,186.1,924.2,185.7z M911.3,186.3c-6.6,0-12-5.4-12-12c0-6.7,5.5-12.2,12.1-12.2c6.3,0,11.5,5.2,11.6,11.5
			C923,180.1,917.4,186.2,911.3,186.3z"/>
		<path class="st3" d="M663.3,161.6c0,1.9,0,3.7,0,6.3c-7.5-8.1-15-9.1-21-3.4c-5.4,5.2-5.6,14.1-0.3,19.2c2.6,2.6,5.7,3.8,9.4,3.7
			c5.4-0.1,8.6-3.3,11.4-7.6c0.6,2.5-0.3,4.9,1.1,7c0-8.4,0-16.8,0-25.2C663.7,161.6,663.5,161.6,663.3,161.6z M650.6,186.3
			c-6.4-0.2-11.4-5.8-11.2-12.4c0.2-6.6,5.6-11.9,12.2-11.8c6.2,0.1,11.6,5.5,11.5,11.7C662.9,180.5,657.1,186.5,650.6,186.3z"/>
		<g>
			<path class="st8" d="M781.6,226c1.3-1.6,2.4-3.4,3.7-5.1c1.1-1.8,2.3-3.7,3.6-5.7c-3.2,0.5-6.1,0.9-9,1.4c-2.1,0.3-2.7,1.6-3,3.6
				c-0.4,3.5,0.3,6.7,1.3,10C780,229.3,780.4,227.4,781.6,226z"/>
			<path class="st8" d="M783,225.7L783,225.7L783,225.7z"/>
		</g>
		<g>
			<path class="st8" d="M798.5,235.1c0.7,0.5,1.4,1,2.1,1.5C799.9,236,799.2,235.5,798.5,235.1z"/>
			<path class="st8" d="M788.5,229.4c0.5,3.2,0.9,6.3,1.3,9.5c0.2,0.7,0.2,1.6,1.2,1.8c4.2,1,8.4,1.2,12.3-1.4c-2.9-2-5.8-4-8.7-6.1
				C792.5,232,790.5,230.8,788.5,229.4z"/>
		</g>
		<g>
			<path class="st8" d="M807.3,221.6c1.5-2.5,3.2-5,5-7.3c-1.8-4.5-5.5-7.1-10-9.2c0.4,2.6,0.8,4.9,1.2,7.2c0.7,3.6,1.4,7.1,2.2,11
				C806.5,222.6,806.9,222.1,807.3,221.6L807.3,221.6z"/>
			<path class="st8" d="M809.6,219.6c0.3-0.4,0.7-0.8,0.9-1.3C810.2,218.8,809.9,219.2,809.6,219.6z"/>
		</g>
		<path class="st11" d="M801.7,207c-0.2-2-1.3-2.6-2.9-2.8c-3.5-0.4-6.9,0-10.3,1.1c-0.4,0.9,0.5,1.1,0.8,1.5
			c1.2,0.9,2.3,1.7,3.6,2.6c1.2,0.9,2.5,1.7,3.6,2.4c2.1,1.4,4.3,2.7,6.6,4.2c0-0.9,0-1.5,0-2.1C802.7,211.6,802,209.3,801.7,207z"
			/>
		<path class="st11" d="M813.4,215.5c-1.4-0.4-1.4,1-1.9,1.6c-1.3,1.6-2.5,3.4-3.7,5.1c-1.5,2.3-3,4.7-4.6,6.9
			c-1.1,1.6,0.3,1,0.9,1.2c2.5-0.9,5.1-1.2,7.7-1.5c1.7-0.3,2.4-1.1,2.6-2.8C815,222.3,814.4,218.9,813.4,215.5z"/>
		<g>
			<path class="st11" d="M789.4,206.8c0.1,0,0.1,0.1,0.1,0.1C789.4,206.9,789.4,206.8,789.4,206.8
				C789.3,206.8,789.3,206.7,789.4,206.8C789.3,206.8,789.3,206.8,789.4,206.8z"/>
			<path class="st11" d="M788.8,207.3c-0.6-0.2-1.1-0.5-1.5-1c-4.6,1.4-6.9,5.1-9,9c-0.4,0.8,0.4,0.6,0.9,0.8c1-0.2,2-0.4,3-0.6
				c4.6-1.1,9.4-1.3,13.9-3C793.6,210.7,791.2,209,788.8,207.3z"/>
		</g>
		<path class="st8" d="M805.2,230.7c-3,0.6-6.1,1.1-9.1,1.7c-0.9,0.9,0.1,1.1,0.5,1.4c2.4,1.7,4.7,3.4,7.1,5.1
			c0.7,0.3,1.3,0.2,1.9-0.2c3.5-2.3,6.1-5.3,7.7-9.4C810.5,229.8,807.9,230.2,805.2,230.7z"/>
		<path class="st8" d="M785.8,222.1L785.8,222.1c-2.6,2.5-4,6-6.5,8.6c-0.2,1.2,0.7,2,1.3,2.9c2,2.9,4.8,4.7,7.8,6.3
			C787.5,234,786.6,228.1,785.8,222.1z"/>
	</g>
</g>
</svg>
